<svg width="30" height="30" viewBox="0 0 30 30" fill="none" xmlns="http://www.w3.org/2000/svg">
<g id="Card">
<path id="Vector" d="M22.402 6.59351H8.04559C7.08798 6.59465 6.16992 6.97557 5.49279 7.6527C4.81566 8.32983 4.43474 9.24789 4.43359 10.2055V19.6079C4.43474 20.5656 4.81566 21.4836 5.49279 22.1607C6.16992 22.8379 7.08798 23.2188 8.04559 23.2199H22.402C23.3596 23.2188 24.2776 22.8379 24.9548 22.1607C25.6319 21.4836 26.0128 20.5656 26.014 19.6079V10.2055C26.0128 9.24789 25.6319 8.32983 24.9548 7.6527C24.2776 6.97557 23.3596 6.59465 22.402 6.59351ZM8.04559 8.0383H22.402C22.9765 8.03892 23.5274 8.26744 23.9337 8.67374C24.34 9.08003 24.5685 9.63091 24.5692 10.2055V11.153H5.87839V10.2055C5.879 9.63091 6.10753 9.08003 6.51382 8.67374C6.92012 8.26744 7.471 8.03892 8.04559 8.0383ZM22.402 21.7751H8.04559C7.471 21.7745 6.92012 21.546 6.51382 21.1397C6.10753 20.7334 5.879 20.1825 5.87839 19.6079V12.5978H24.5692V19.6079C24.5685 20.1825 24.34 20.7334 23.9337 21.1397C23.5274 21.546 22.9765 21.7745 22.402 21.7751ZM22.5945 18.3966C22.5945 18.5882 22.5184 18.772 22.383 18.9074C22.2475 19.0429 22.0637 19.119 21.8722 19.119H20.1401C19.9485 19.119 19.7648 19.0429 19.6293 18.9074C19.4938 18.772 19.4177 18.5882 19.4177 18.3966C19.4177 18.205 19.4938 18.0213 19.6293 17.8858C19.7648 17.7503 19.9485 17.6742 20.1401 17.6742H21.8722C22.0637 17.6742 22.2475 17.7503 22.383 17.8858C22.5184 18.0213 22.5945 18.205 22.5945 18.3966Z" fill="white"/>
</g>
</svg>
