<svg width="36" height="36" viewBox="0 0 36 36" fill="none" xmlns="http://www.w3.org/2000/svg">
<g id="Cart">
<path id="Vector" fill-rule="evenodd" clip-rule="evenodd" d="M12.3456 14.9084C12.3456 15.2951 12.4992 15.6661 12.7727 15.9396C13.0462 16.2131 13.4171 16.3667 13.8039 16.3667C14.1907 16.3667 14.5616 16.2131 14.8351 15.9396C15.1086 15.6661 15.2622 15.2951 15.2622 14.9084V11.9917H21.0956V14.9084C21.0956 15.2951 21.2492 15.6661 21.5227 15.9396C21.7962 16.2131 22.1671 16.3667 22.5539 16.3667C22.9407 16.3667 23.3116 16.2131 23.5851 15.9396C23.8586 15.6661 24.0122 15.2951 24.0122 14.9084V11.9917H26.9289V25.1167C26.9289 26.277 26.468 27.3898 25.6475 28.2103C24.827 29.0308 23.7142 29.4917 22.5539 29.4917H13.8039C12.6436 29.4917 11.5308 29.0308 10.7103 28.2103C9.88983 27.3898 9.42889 26.277 9.42889 25.1167V11.9917H12.3456V14.9084ZM15.2622 9.07503H21.0956C21.0956 8.30148 20.7883 7.55962 20.2413 7.01264C19.6943 6.46566 18.9524 6.15837 18.1789 6.15837C17.4053 6.15837 16.6635 6.46566 16.1165 7.01264C15.5695 7.55962 15.2622 8.30148 15.2622 9.07503ZM24.0122 9.07503C24.0122 7.52794 23.3976 6.04421 22.3037 4.95024C21.2097 3.85628 19.726 3.2417 18.1789 3.2417C16.6318 3.2417 15.1481 3.85628 14.0541 4.95024C12.9601 6.04421 12.3456 7.52794 12.3456 9.07503H7.97056C7.58378 9.07503 7.21285 9.22868 6.93936 9.50217C6.66587 9.77566 6.51222 10.1466 6.51222 10.5334V25.1167C6.51222 27.0506 7.28045 28.9052 8.6479 30.2727C10.0154 31.6401 11.87 32.4084 13.8039 32.4084H22.5539C24.4878 32.4084 26.3424 31.6401 27.7099 30.2727C29.0773 28.9052 29.8456 27.0506 29.8456 25.1167V10.5334C29.8456 10.1466 29.6919 9.77566 29.4184 9.50217C29.1449 9.22868 28.774 9.07503 28.3872 9.07503H24.0122Z" fill="black"/>
</g>
</svg>
