<svg width="36" height="36" viewBox="0 0 36 36" fill="none" xmlns="http://www.w3.org/2000/svg">
<g id="Menu">
<g id="Layer 2">
<g id="menu">
<path id="Vector" d="M29.8382 16.6663H6.40509C5.64145 16.6663 5.02239 17.2853 5.02239 18.049V18.1945C5.02239 18.9581 5.64145 19.5772 6.40509 19.5772H29.8382C30.6018 19.5772 31.2209 18.9581 31.2209 18.1945V18.049C31.2209 17.2853 30.6018 16.6663 29.8382 16.6663Z" fill="black"/>
<path id="Vector_2" d="M29.8382 23.9436H6.40509C5.64145 23.9436 5.02239 24.5627 5.02239 25.3263V25.4718C5.02239 26.2355 5.64145 26.8545 6.40509 26.8545H29.8382C30.6018 26.8545 31.2209 26.2355 31.2209 25.4718V25.3263C31.2209 24.5627 30.6018 23.9436 29.8382 23.9436Z" fill="black"/>
<path id="Vector_3" d="M29.8382 9.38892H6.40509C5.64145 9.38892 5.02239 10.008 5.02239 10.7716V10.9172C5.02239 11.6808 5.64145 12.2999 6.40509 12.2999H29.8382C30.6018 12.2999 31.2209 11.6808 31.2209 10.9172V10.7716C31.2209 10.008 30.6018 9.38892 29.8382 9.38892Z" fill="black"/>
</g>
</g>
</g>
</svg>
