<svg width="30" height="30" viewBox="0 0 30 30" fill="none" xmlns="http://www.w3.org/2000/svg">
<g clip-path="url(#clip0_0_2811)">
<path d="M23.5124 25.3888H0.611554C0.44936 25.3888 0.293809 25.3244 0.17912 25.2097C0.0644314 25.095 0 24.9394 0 24.7772V11.6692C0 11.507 0.0644314 11.3514 0.17912 11.2367C0.293809 11.122 0.44936 11.0576 0.611554 11.0576H23.5124C23.6746 11.0576 23.8302 11.122 23.9449 11.2367C24.0596 11.3514 24.124 11.507 24.124 11.6692V24.7772C24.124 24.9394 24.0596 25.095 23.9449 25.2097C23.8302 25.3244 23.6746 25.3888 23.5124 25.3888ZM1.22311 24.1657H22.9009V12.2807H1.22311V24.1657Z" fill="white"/>
<path d="M19.5697 23.5358H4.55786C4.39567 23.5358 4.24011 23.4714 4.12543 23.3567C4.01074 23.242 3.94631 23.0864 3.94631 22.9242C3.94582 22.5988 3.81627 22.2868 3.58606 22.0567C3.35585 21.8266 3.04379 21.6972 2.7183 21.6968C2.55611 21.6968 2.40056 21.6324 2.28587 21.5177C2.17118 21.403 2.10675 21.2475 2.10675 21.0853V15.3618C2.10675 15.1996 2.17118 15.044 2.28587 14.9293C2.40056 14.8146 2.55611 14.7502 2.7183 14.7502C3.04384 14.7497 3.35591 14.6202 3.5861 14.39C3.81629 14.1598 3.94582 13.8477 3.94631 13.5222C3.94631 13.36 4.01074 13.2045 4.12543 13.0898C4.24011 12.9751 4.39567 12.9106 4.55786 12.9106H19.5697C19.7319 12.9106 19.8874 12.9751 20.0021 13.0898C20.1168 13.2045 20.1812 13.36 20.1812 13.5222C20.1816 13.8469 20.3104 14.1584 20.5395 14.3884C20.7687 14.6185 21.0796 14.7486 21.4043 14.7502C21.5665 14.7502 21.7221 14.8146 21.8368 14.9293C21.9515 15.044 22.0159 15.1996 22.0159 15.3618V21.0853C22.0159 21.2475 21.9515 21.403 21.8368 21.5177C21.7221 21.6324 21.5665 21.6968 21.4043 21.6968C21.0789 21.6972 20.7669 21.8266 20.5368 22.0567C20.3067 22.2868 20.1773 22.5988 20.177 22.9242C20.177 23.0857 20.1131 23.2406 19.9994 23.3552C19.8856 23.4697 19.7311 23.5347 19.5697 23.5358ZM5.09481 22.3127H19.0382C19.1476 21.8892 19.3678 21.5026 19.6762 21.1925C19.9846 20.8824 20.37 20.6601 20.7928 20.5483V15.8956C20.3689 15.7854 19.982 15.564 19.6723 15.2542C19.3626 14.9445 19.1411 14.5577 19.0309 14.1338H5.09175C4.98162 14.5577 4.76023 14.9446 4.45048 15.2544C4.14073 15.5641 3.75385 15.7855 3.32986 15.8956V20.5483C3.75409 20.6588 4.14111 20.8806 4.45087 21.1908C4.76063 21.501 4.98189 21.8883 5.09175 22.3127H5.09481Z" fill="white"/>
<path d="M12.0624 21.5941C11.3956 21.5942 10.7437 21.3966 10.1893 21.0262C9.63485 20.6558 9.2027 20.1293 8.94751 19.5133C8.69232 18.8973 8.62555 18.2194 8.75564 17.5655C8.88574 16.9115 9.20686 16.3108 9.67839 15.8394C10.1499 15.368 10.7507 15.0469 11.4046 14.917C12.0586 14.787 12.7365 14.8539 13.3524 15.1092C13.9684 15.3645 14.4948 15.7967 14.8651 16.3512C15.2354 16.9058 15.4329 17.5576 15.4326 18.2244C15.4312 19.1178 15.0756 19.9741 14.4439 20.6057C13.8121 21.2374 12.9557 21.5928 12.0624 21.5941ZM12.0624 16.076C11.6376 16.0759 11.2223 16.2017 10.869 16.4376C10.5157 16.6735 10.2404 17.0089 10.0777 17.4013C9.91502 17.7937 9.87236 18.2256 9.95512 18.6422C10.0379 19.0589 10.2423 19.4416 10.5426 19.7421C10.8429 20.0425 11.2255 20.2472 11.6421 20.3302C12.0587 20.4132 12.4906 20.3708 12.8831 20.2083C13.2756 20.0459 13.6111 19.7707 13.8472 19.4175C14.0833 19.0644 14.2094 18.6492 14.2095 18.2244C14.2092 17.6549 13.9829 17.1089 13.5804 16.7061C13.1778 16.3033 12.6318 16.0767 12.0624 16.076Z" fill="white"/>
<path d="M24.963 21.8863C24.8061 21.8864 24.6552 21.8261 24.5415 21.7179C24.4278 21.6098 24.36 21.4621 24.3522 21.3054C24.3443 21.1487 24.397 20.995 24.4993 20.876C24.6016 20.757 24.7457 20.682 24.9019 20.6663L25.6076 20.5923L24.3661 8.77278L4.67838 10.8398C4.51699 10.8568 4.35549 10.8089 4.22939 10.7068C4.10329 10.6047 4.02292 10.4566 4.00597 10.2952C3.98902 10.1339 4.03688 9.97235 4.13901 9.84625C4.24114 9.72015 4.38918 9.63978 4.55056 9.62284L24.8444 7.49218C24.9243 7.4837 25.0051 7.49106 25.0822 7.51383C25.1592 7.53661 25.2311 7.57435 25.2935 7.6249C25.356 7.67544 25.4079 7.73781 25.4463 7.80843C25.4846 7.87905 25.5087 7.95654 25.5171 8.03646L26.8864 21.073C26.8948 21.1529 26.8875 21.2337 26.8647 21.3108C26.8419 21.3878 26.8042 21.4597 26.7536 21.5221C26.7031 21.5846 26.6407 21.6365 26.5701 21.6749C26.4995 21.7132 26.422 21.7373 26.3421 21.7457L25.0278 21.8839C25.0058 21.8851 24.9844 21.8863 24.963 21.8863Z" fill="white"/>
<path d="M27.7445 18.2536C27.5924 18.2535 27.4458 18.1967 27.3333 18.0943C27.2208 17.9919 27.1505 17.8512 27.1362 17.6998C27.1218 17.5484 27.1644 17.397 27.2556 17.2753C27.3468 17.1536 27.4801 17.0702 27.6295 17.0415L28.0276 16.9651L25.7881 5.29292L6.62137 8.96959C6.54238 8.98473 6.46119 8.98416 6.38242 8.96792C6.30365 8.95168 6.22886 8.92008 6.1623 8.87494C6.02789 8.78376 5.9352 8.64292 5.90462 8.4834C5.88949 8.40442 5.89005 8.32322 5.90629 8.24446C5.92253 8.16569 5.95413 8.0909 5.99928 8.02434C6.04442 7.95778 6.10224 7.90077 6.16941 7.85656C6.23659 7.81235 6.31182 7.7818 6.39081 7.76666L26.1587 3.97502C26.3179 3.94455 26.4826 3.9785 26.6168 4.06944C26.751 4.16037 26.8436 4.30084 26.8742 4.45999L29.3437 17.3338C29.3741 17.4931 29.3401 17.6579 29.249 17.7921C29.158 17.9263 29.0174 18.0188 28.8581 18.0493L27.86 18.2408C27.822 18.2486 27.7833 18.2529 27.7445 18.2536Z" fill="white"/>
</g>
<defs>
<clipPath id="clip0_0_2811">
<rect width="29.3546" height="29.3546" fill="white"/>
</clipPath>
</defs>
</svg>
