<svg width="31" height="32" viewBox="0 0 31 32" fill="none" xmlns="http://www.w3.org/2000/svg">
<g id="Search">
<g id="Layer 2">
<path id="search" d="M26.7377 25.4366L22.3932 21.105C23.7949 19.3192 24.5555 17.114 24.5527 14.8438C24.5527 12.8221 23.9532 10.8457 22.8299 9.16466C21.7067 7.48362 20.1102 6.17341 18.2423 5.39971C16.3745 4.62601 14.3191 4.42358 12.3362 4.818C10.3533 5.21243 8.53182 6.18601 7.10222 7.61561C5.67261 9.04522 4.69903 10.8667 4.30461 12.8496C3.91018 14.8325 4.11261 16.8878 4.88631 18.7557C5.66001 20.6236 6.97022 22.2201 8.65126 23.3433C10.3323 24.4666 12.3087 25.0661 14.3304 25.0661C16.6006 25.0689 18.8058 24.3083 20.5916 22.9066L24.9232 27.2511C25.042 27.3709 25.1834 27.4659 25.3391 27.5308C25.4948 27.5957 25.6618 27.6291 25.8305 27.6291C25.9992 27.6291 26.1662 27.5957 26.3219 27.5308C26.4776 27.4659 26.6189 27.3709 26.7377 27.2511C26.8575 27.1323 26.9525 26.991 27.0174 26.8353C27.0823 26.6796 27.1157 26.5126 27.1157 26.3439C27.1157 26.1752 27.0823 26.0082 27.0174 25.8525C26.9525 25.6968 26.8575 25.5554 26.7377 25.4366ZM6.66375 14.8438C6.66375 13.3275 7.1134 11.8452 7.95582 10.5845C8.79825 9.32367 9.99562 8.34101 11.3965 7.76074C12.7974 7.18047 14.3389 7.02864 15.8261 7.32446C17.3133 7.62028 18.6794 8.35046 19.7516 9.42267C20.8238 10.4949 21.554 11.8609 21.8498 13.3481C22.1456 14.8353 21.9938 16.3768 21.4135 17.7778C20.8333 19.1787 19.8506 20.376 18.5898 21.2185C17.329 22.0609 15.8468 22.5105 14.3304 22.5105C12.2971 22.5105 10.3471 21.7028 8.90927 20.265C7.47149 18.8272 6.66375 16.8772 6.66375 14.8438Z" fill="black"/>
</g>
</g>
</svg>
