<svg width="36" height="35" viewBox="0 0 36 35" fill="none" xmlns="http://www.w3.org/2000/svg">
<g id="Cart">
<path id="Vector" fill-rule="evenodd" clip-rule="evenodd" d="M12.5981 14.5832C12.5981 14.9699 12.7517 15.3409 13.0252 15.6144C13.2987 15.8879 13.6697 16.0415 14.0564 16.0415C14.4432 16.0415 14.8141 15.8879 15.0876 15.6144C15.3611 15.3409 15.5148 14.9699 15.5148 14.5832V11.6665H21.3481V14.5832C21.3481 14.9699 21.5017 15.3409 21.7752 15.6144C22.0487 15.8879 22.4197 16.0415 22.8064 16.0415C23.1932 16.0415 23.5641 15.8879 23.8376 15.6144C24.1111 15.3409 24.2648 14.9699 24.2648 14.5832V11.6665H27.1814V24.7915C27.1814 25.9518 26.7205 27.0646 25.9 27.8851C25.0796 28.7056 23.9668 29.1665 22.8064 29.1665H14.0564C12.8961 29.1665 11.7833 28.7056 10.9628 27.8851C10.1424 27.0646 9.68144 25.9518 9.68144 24.7915V11.6665H12.5981V14.5832ZM15.5148 8.74984H21.3481C21.3481 7.97629 21.0408 7.23442 20.4938 6.68744C19.9469 6.14046 19.205 5.83317 18.4314 5.83317C17.6579 5.83317 16.916 6.14046 16.369 6.68744C15.8221 7.23442 15.5148 7.97629 15.5148 8.74984ZM24.2648 8.74984C24.2648 7.20274 23.6502 5.71901 22.5562 4.62505C21.4623 3.53109 19.9785 2.9165 18.4314 2.9165C16.8843 2.9165 15.4006 3.53109 14.3066 4.62505C13.2127 5.71901 12.5981 7.20274 12.5981 8.74984H8.2231C7.83633 8.74984 7.4654 8.90348 7.19191 9.17697C6.91842 9.45046 6.76477 9.8214 6.76477 10.2082V24.7915C6.76477 26.7254 7.533 28.58 8.90045 29.9475C10.2679 31.3149 12.1226 32.0832 14.0564 32.0832H22.8064C24.7403 32.0832 26.595 31.3149 27.9624 29.9475C29.3299 28.58 30.0981 26.7254 30.0981 24.7915V10.2082C30.0981 9.8214 29.9445 9.45046 29.671 9.17697C29.3975 8.90348 29.0265 8.74984 28.6398 8.74984H24.2648Z" fill="black"/>
</g>
</svg>
