<svg width="35" height="35" viewBox="0 0 35 35" fill="none" xmlns="http://www.w3.org/2000/svg">
<g id="Menu">
<g id="Layer 2">
<g id="menu">
<path id="Vector" d="M29.1822 16.0103H5.74909C4.98545 16.0103 4.36639 16.6293 4.36639 17.393V17.5385C4.36639 18.3021 4.98545 18.9212 5.74909 18.9212H29.1822C29.9458 18.9212 30.5649 18.3021 30.5649 17.5385V17.393C30.5649 16.6293 29.9458 16.0103 29.1822 16.0103Z" fill="black"/>
<path id="Vector_2" d="M29.1822 23.2876H5.74909C4.98545 23.2876 4.36639 23.9067 4.36639 24.6703V24.8158C4.36639 25.5795 4.98545 26.1985 5.74909 26.1985H29.1822C29.9458 26.1985 30.5649 25.5795 30.5649 24.8158V24.6703C30.5649 23.9067 29.9458 23.2876 29.1822 23.2876Z" fill="black"/>
<path id="Vector_3" d="M29.1822 8.73291H5.74909C4.98545 8.73291 4.36639 9.35197 4.36639 10.1156V10.2612C4.36639 11.0248 4.98545 11.6439 5.74909 11.6439H29.1822C29.9458 11.6439 30.5649 11.0248 30.5649 10.2612V10.1156C30.5649 9.35197 29.9458 8.73291 29.1822 8.73291Z" fill="black"/>
</g>
</g>
</g>
</svg>
