<svg width="32" height="31" viewBox="0 0 32 31" fill="none" xmlns="http://www.w3.org/2000/svg">
<g id="Search">
<g id="Layer 2">
<path id="search" d="M27.3943 24.6486L23.0498 20.3169C24.4515 18.5311 25.2121 16.3259 25.2093 14.0558C25.2093 12.034 24.6098 10.0576 23.4865 8.37657C22.3633 6.69553 20.7668 5.38532 18.8989 4.61162C17.031 3.83793 14.9757 3.63549 12.9928 4.02992C11.0098 4.42435 9.18841 5.39792 7.7588 6.82753C6.3292 8.25714 5.35562 10.0786 4.96119 12.0615C4.56677 14.0444 4.7692 16.0998 5.5429 17.9676C6.3166 19.8355 7.62681 21.432 9.30785 22.5552C10.9889 23.6785 12.9653 24.278 14.987 24.278C17.2572 24.2808 19.4624 23.5203 21.2482 22.1185L25.5798 26.463C25.6986 26.5828 25.8399 26.6778 25.9957 26.7427C26.1514 26.8076 26.3184 26.841 26.4871 26.841C26.6557 26.841 26.8228 26.8076 26.9785 26.7427C27.1342 26.6778 27.2755 26.5828 27.3943 26.463C27.514 26.3442 27.6091 26.2029 27.674 26.0472C27.7388 25.8915 27.7722 25.7245 27.7722 25.5558C27.7722 25.3871 27.7388 25.2201 27.674 25.0644C27.6091 24.9087 27.514 24.7673 27.3943 24.6486ZM7.32034 14.0558C7.32034 12.5394 7.76998 11.0571 8.61241 9.79637C9.45483 8.53559 10.6522 7.55293 12.0531 6.97265C13.454 6.39238 14.9955 6.24056 16.4827 6.53638C17.9699 6.8322 19.336 7.56238 20.4082 8.63458C21.4804 9.70679 22.2106 11.0729 22.5064 12.5601C22.8022 14.0472 22.6504 15.5888 22.0701 16.9897C21.4898 18.3906 20.5072 19.5879 19.2464 20.4304C17.9856 21.2728 16.5034 21.7224 14.987 21.7224C12.9537 21.7224 11.0036 20.9147 9.56586 19.4769C8.12808 18.0391 7.32034 16.0891 7.32034 14.0558Z" fill="black"/>
</g>
</g>
</svg>
