<svg width="36" height="36" viewBox="0 0 36 36" fill="none" xmlns="http://www.w3.org/2000/svg">
<g id="Cash In Hand">
<path id="Vector" d="M30.5803 10.4445C30.5803 9.5541 29.8543 8.83496 28.9708 8.83496H13.7936C12.9032 8.83496 12.1841 9.56095 12.1841 10.4445V16.8961C12.1841 17.7865 12.9101 18.5056 13.7936 18.5056H28.9708C29.8611 18.5056 30.5803 17.7796 30.5803 16.8961" fill="#ABDC69"/>
<path id="Vector_2" d="M30.5801 14.4237L26.7652 18.5125H28.9706C29.8609 18.5125 30.5801 17.7865 30.5801 16.903M16.0604 18.5125H13.7866C12.8962 18.5125 12.1771 17.7865 12.1771 16.903V14.4237L16.0604 18.5125ZM16.0604 8.83496H13.7866C12.8962 8.83496 12.1771 9.56095 12.1771 10.4445V12.9238L16.0604 8.83496ZM30.5801 10.4445C30.5801 9.5541 29.8541 8.83496 28.9706 8.83496H26.7652L30.5801 12.9238" fill="#91C94B"/>
<path id="Vector_3" d="M21.3821 16.3279C22.8497 16.3279 24.0395 15.1382 24.0395 13.6706C24.0395 12.2029 22.8497 11.0132 21.3821 11.0132C19.9145 11.0132 18.7247 12.2029 18.7247 13.6706C18.7247 15.1382 19.9145 16.3279 21.3821 16.3279Z" fill="#91C94B"/>
<path id="Vector_4" d="M31.6007 20.1018C31.1898 19.8484 30.6693 19.8347 30.2104 20.0675L22.656 23.6084L7.65694 22.5468C7.65009 22.5468 7.63639 22.5468 7.62954 22.5537C7.62269 22.5605 7.61584 22.5674 7.61584 22.5811V29.5533C7.61584 29.567 7.62269 29.5738 7.62954 29.5807C7.63639 29.5875 7.65009 29.5875 7.66379 29.5807C9.91023 28.6835 12.4306 29.1903 14.6497 29.6355L14.9716 29.6971C15.9441 29.8889 16.8276 29.9916 17.6495 29.9916C19.1494 29.9916 20.4439 29.6629 21.7314 28.9848C22.9574 28.3136 24.1286 27.6219 25.512 26.7384C26.5188 26.1014 27.5119 25.396 28.4708 24.7179C28.7516 24.5193 29.0255 24.3275 29.2926 24.1426C30.0049 23.6701 30.6008 23.1906 31.1829 22.7249C31.7035 22.4646 32.2651 21.9784 32.2651 21.3962C32.2651 20.8346 32.0185 20.362 31.6007 20.1018Z" fill="#F5C89A"/>
<path id="Vector_5" fill-rule="evenodd" clip-rule="evenodd" d="M20.9916 26.0874L20.7451 26.1285C20.2314 26.2039 19.7246 26.1902 19.2109 26.2176C18.3822 26.2587 17.5535 26.3066 16.7247 26.3477C16.6494 26.3545 16.5741 26.3545 16.5056 26.3614C15.3207 26.4778 13.8414 25.834 13.0126 25.1286L14.2865 25.0669L20.0533 23.9026L22.6422 23.615L24.3202 22.8342C24.3613 22.8136 24.5051 23.252 24.512 23.2794C24.8202 24.6081 23.2792 25.3683 22.2724 25.745C21.8614 25.8888 21.4299 26.0052 20.9916 26.0874Z" fill="#F3B161"/>
<path id="Vector_6" d="M7.41022 22.4643C8.35537 21.8753 8.94437 21.7521 10.0128 21.5192C11.0744 21.2795 12.1428 21.2795 13.2044 21.4028C14.3893 21.5192 15.4508 22.115 16.6288 22.2315C17.574 22.3479 18.5191 22.4712 19.4643 22.3479C20.1766 22.2315 20.7656 22.1082 21.471 22.1082C22.2997 22.2246 22.7723 22.9369 22.5326 23.7656C22.2929 24.3546 21.5875 24.7108 20.9985 24.7108L13.5537 25.0669" fill="#EEC79E"/>
<path id="Vector_7" d="M22.4366 22.6565C22.2312 22.3414 21.8956 22.136 21.4778 22.0812C20.8545 22.0812 20.334 22.1702 19.7313 22.273C19.6423 22.2867 19.5533 22.3004 19.4711 22.3209C18.5328 22.4373 17.5739 22.3209 16.6425 22.2045C16.0535 22.1428 15.485 21.9648 14.9371 21.7935C14.3823 21.6155 13.8139 21.4374 13.218 21.3758C12.0195 21.2456 10.9716 21.2799 10.0127 21.4922L9.90999 21.5127C8.9169 21.7319 8.32104 21.862 7.40329 22.4373C7.38959 22.4442 7.38274 22.4716 7.38959 22.4853C7.39644 22.499 7.42383 22.5058 7.43753 22.499C7.44438 22.4921 7.45123 22.4921 7.45808 22.4853L13.5331 25.0536V25.0673C13.5331 25.0879 13.5468 25.1016 13.5673 25.1016L21.0121 24.7454C21.5874 24.7454 22.3271 24.4098 22.5805 23.7729C22.6901 23.3688 22.6353 22.9715 22.4366 22.6565Z" fill="#F5C89A"/>
<path id="Vector_8" d="M6.45831 19.7593H4.03379C3.28726 19.7593 2.78729 20.2592 2.78729 21.0058V30.7038C2.78729 31.4504 3.28726 31.9503 4.03379 31.9503H6.45831C7.20484 31.9503 7.70481 31.4504 7.70481 30.7038V21.0058C7.70481 20.2592 7.20484 19.7593 6.45831 19.7593Z" fill="#87BCE3"/>
</g>
</svg>
