<svg width="40" height="40" viewBox="0 0 40 40" fill="none" xmlns="http://www.w3.org/2000/svg">
<g id="debit card with bug">
<path id="Vector" d="M31.208 11.396H8.10928C7.61782 11.396 7.21851 11.7953 7.21851 12.2868V27.0306C7.21851 27.5221 7.61782 27.9214 8.10928 27.9214H31.2233C31.7148 27.9214 32.1141 27.5221 32.1141 27.0306V12.2868C32.0987 11.7953 31.6994 11.396 31.208 11.396Z" fill="#6DB8E0"/>
<path id="Vector_2" d="M7.21851 14.2368H32.1141V18.0917H7.21851V14.2368Z" fill="#36505F"/>
<path id="Vector_3" d="M10.7202 25.0186H17.9078V25.894H10.7202V25.0186ZM21.9624 25.0186H29.15V25.894H21.9624V25.0186Z" fill="white"/>
<path id="Vector_4" d="M20.8413 16.6485C20.7953 16.7253 20.7031 16.7868 20.611 16.7868L19.0291 16.8175C18.8755 16.8175 18.7526 16.71 18.7526 16.5564C18.7526 16.4028 18.8601 16.2799 19.0137 16.2799L20.5956 16.2492C20.7492 16.2492 20.872 16.3567 20.872 16.5103C20.872 16.5564 20.8567 16.6025 20.8413 16.6485ZM21.256 15.8346C21.3021 15.7578 21.3021 15.6503 21.2406 15.5581L20.3499 14.2373C20.2731 14.1144 20.1041 14.0837 19.9813 14.1605C19.8584 14.2373 19.8277 14.4062 19.9045 14.5291L20.7953 15.8499C20.872 15.9728 21.041 16.0035 21.1639 15.9267C21.2099 15.9113 21.2406 15.8653 21.256 15.8346Z" fill="#0B2C48"/>
<path id="Vector_5" d="M22.669 19.1208C22.6536 19.1515 22.6383 19.1668 22.6076 19.1975L21.7629 19.7812C21.4557 19.9962 21.1332 20.1958 20.7646 20.1344C20.6571 20.119 20.5496 20.0883 20.4728 20.0576L19.7049 19.7812C19.5666 19.7351 19.4284 19.689 19.3056 19.689C19.2134 19.7044 19.1366 19.7504 19.1366 19.8119C19.1213 19.9194 19.0138 19.9962 18.9062 19.9808C18.7987 19.9655 18.722 19.8579 18.7373 19.7504C18.7834 19.474 19.0445 19.3051 19.2748 19.2897C19.4899 19.2743 19.6895 19.3358 19.8431 19.3972L20.611 19.6737C20.6878 19.7044 20.7646 19.7197 20.826 19.7351C21.0564 19.7658 21.3021 19.6122 21.5479 19.4433L22.3926 18.8597C22.4847 18.7982 22.6076 18.8136 22.669 18.9057C22.6997 18.9825 22.6997 19.0593 22.669 19.1208ZM24.343 15.8955C24.3584 15.8648 24.3584 15.8341 24.3584 15.8034V14.7744C24.3584 14.4058 24.3277 14.0218 24.0666 13.7454C23.9898 13.6686 23.8977 13.6072 23.8209 13.5457L23.1451 13.085C23.0222 13.0082 22.9147 12.9161 22.8533 12.8086C22.8072 12.7318 22.8072 12.6396 22.8533 12.5935C22.9301 12.5167 22.9301 12.3939 22.8533 12.3017C22.7765 12.2249 22.6536 12.2249 22.5615 12.3017C22.3618 12.486 22.3772 12.7932 22.5001 13.0082C22.6076 13.1925 22.7765 13.3154 22.9147 13.4075L23.5905 13.8683C23.6519 13.9143 23.7134 13.9604 23.7594 14.0065C23.913 14.1754 23.9284 14.4672 23.9437 14.759V15.788C23.9437 15.8955 24.0359 15.9877 24.1434 15.9877C24.2509 16.0031 24.3123 15.957 24.343 15.8955ZM23.7901 19.4279L22.9762 20.9791C22.8994 21.1327 22.8072 21.3016 22.6997 21.4552C22.5615 21.6549 22.3926 21.8392 22.1929 22.0388C21.9932 22.2231 21.7936 22.4228 21.5939 22.5917C21.5171 22.6685 21.3789 22.6531 21.3175 22.5763C21.2407 22.4996 21.256 22.3613 21.3328 22.2999C21.5325 22.131 21.7321 21.9467 21.9164 21.7624C22.1007 21.5781 22.2543 21.4245 22.3772 21.2402C22.4693 21.102 22.5461 20.9637 22.6229 20.8102L23.4369 19.259C23.483 19.1668 23.6058 19.1208 23.7134 19.1668C23.7901 19.2129 23.8362 19.3204 23.7901 19.4279ZM25.2338 16.6327L26.0324 15.0816C26.1092 14.928 26.2014 14.759 26.2628 14.5901C26.355 14.3597 26.401 14.114 26.4471 13.8375C26.4932 13.5765 26.5239 13.3 26.5546 13.0236C26.57 12.9161 26.4932 12.8086 26.3703 12.8086C26.2628 12.7932 26.1553 12.87 26.1553 12.9929C26.1246 13.2539 26.0939 13.515 26.0478 13.7761C26.0017 14.0372 25.9556 14.2522 25.8789 14.4519C25.8174 14.6055 25.7406 14.7437 25.6638 14.8973L24.8652 16.4484C24.8191 16.5406 24.8499 16.6635 24.9574 16.7249C25.0649 16.7863 25.1877 16.7249 25.2338 16.6327Z" fill="#EDF0F2"/>
<g id="Group">
<path id="Vector_6" d="M25.3259 24.0972C25.2798 24.1894 25.1569 24.2354 25.0494 24.1894C24.9573 24.1433 24.9112 24.0204 24.9573 23.9129C25.0494 23.7286 25.1109 23.529 25.1416 23.314C24.8959 23.1143 24.6348 22.8839 24.4658 22.5768C24.2047 22.116 24.1587 21.5017 24.343 20.9027C24.5119 20.3652 24.8344 19.9044 25.1569 19.4898C25.2184 19.3976 25.3566 19.3823 25.4334 19.4591C25.5255 19.5205 25.5409 19.6587 25.4641 19.7355C25.1723 20.1195 24.8651 20.5495 24.7116 21.0256C24.558 21.517 24.5887 22.0085 24.7884 22.3771C24.9419 22.6535 25.203 22.8686 25.4641 23.0682C25.5102 23.1143 25.5409 23.1757 25.5409 23.2372C25.5409 23.529 25.4488 23.8361 25.3259 24.0972ZM29.9333 15.2048C29.9794 15.1127 29.9487 14.9898 29.8565 14.9284C29.7644 14.8823 29.6415 14.913 29.5801 15.0052C29.488 15.1895 29.3497 15.3584 29.1961 15.4966C28.889 15.4199 28.5511 15.3277 28.1979 15.3584C27.6603 15.4045 27.1382 15.727 26.7542 16.2338C26.4163 16.6792 26.2167 17.2014 26.0631 17.7082C26.0324 17.8157 26.0938 17.9232 26.2013 17.954C26.3088 17.9847 26.4163 17.9232 26.447 17.8157C26.6006 17.355 26.7696 16.8635 27.0767 16.4642C27.3839 16.0495 27.8139 15.7885 28.2286 15.7577C28.5511 15.727 28.8736 15.8192 29.1808 15.9113C29.2422 15.9267 29.3037 15.9113 29.3651 15.8806C29.5955 15.6963 29.7951 15.4659 29.9333 15.2048Z" fill="#EDF0F2"/>
</g>
<path id="Vector_7" d="M22.805 17.1449C23.1878 16.407 22.9122 15.5049 22.1893 15.1299C21.4665 14.7549 20.5703 15.0491 20.1875 15.787C19.8047 16.5249 20.0804 17.427 20.8032 17.802C21.526 18.1769 22.4223 17.8827 22.805 17.1449Z" fill="#9A2F20"/>
<path id="Vector_8" d="M27.4156 19.5291C28.1577 18.0986 27.3677 16.217 25.651 15.3264C23.9343 14.4359 21.9411 14.8737 21.199 16.3043C20.4569 17.7348 21.2469 19.6164 22.9636 20.507C24.6803 21.3975 26.6735 20.9597 27.4156 19.5291Z" fill="#E65336"/>
</g>
</svg>
