<svg width="19" height="19" viewBox="0 0 19 19" fill="none" xmlns="http://www.w3.org/2000/svg">
<g id="label">
<g id="Layer 2">
<path id="Vector" d="M10.3461 15.8205C9.96389 15.8205 9.58543 15.745 9.23242 15.5984C8.87942 15.4518 8.55881 15.237 8.28895 14.9663L3.29132 10.0094C2.99484 9.71292 2.76602 9.35584 2.62057 8.96263C2.47512 8.56941 2.41649 8.14938 2.4487 7.73136L2.62885 5.44175C2.68225 4.75055 2.98103 4.10121 3.47124 3.611C3.96146 3.12079 4.61079 2.822 5.302 2.7686L7.59161 2.58846C8.01065 2.55303 8.43239 2.60898 8.82769 2.75245C9.223 2.89593 9.58245 3.1235 9.88122 3.41946L14.873 8.41708C15.4178 8.96196 15.7238 9.70088 15.7238 10.4713C15.7238 11.2418 15.4178 11.9807 14.873 12.5256L12.4091 14.9895C12.1378 15.2583 11.8156 15.4703 11.4613 15.6129C11.1071 15.7556 10.728 15.8262 10.3461 15.8205ZM9.04441 4.19816C8.71778 3.87112 8.27465 3.68718 7.81243 3.68677H7.67878L5.38917 3.86111C4.97444 3.89315 4.58484 4.07242 4.29071 4.36655C3.99659 4.66067 3.81732 5.05027 3.78528 5.465L3.61094 7.75461C3.59178 8.00523 3.62705 8.25702 3.71431 8.49274C3.80158 8.72845 3.93878 8.94251 4.11651 9.12024L8.45748 13.4961L13.3679 8.58561L9.04441 4.19816ZM14.1931 9.42823L9.3001 14.3213C9.63758 14.5663 10.0503 14.6854 10.4664 14.6578C10.8826 14.6302 11.2759 14.4577 11.5781 14.1702L14.042 11.7062C14.337 11.4082 14.5146 11.0138 14.5423 10.5954C14.5701 10.177 14.4461 9.76263 14.1931 9.42823Z" fill="#828282"/>
<path id="Vector_2" d="M6.64434 8.51563C6.29976 8.51532 5.963 8.41291 5.67659 8.22133C5.39018 8.02975 5.16696 7.75758 5.03514 7.43921C4.90331 7.12085 4.86879 6.77055 4.93593 6.43258C5.00307 6.0946 5.16887 5.7841 5.41237 5.54029C5.74493 5.22474 6.1859 5.04883 6.64434 5.04883C7.10279 5.04883 7.54375 5.22474 7.87632 5.54029C8.11982 5.7841 8.28561 6.0946 8.35275 6.43258C8.4199 6.77055 8.38537 7.12085 8.25355 7.43921C8.12172 7.75758 7.89851 8.02975 7.6121 8.22133C7.32569 8.41291 6.98892 8.51532 6.64434 8.51563ZM7.05694 6.36548C7.00312 6.31057 6.93894 6.26689 6.86811 6.23697C6.79729 6.20704 6.72123 6.19147 6.64434 6.19115C6.49022 6.19115 6.34241 6.25237 6.23343 6.36135C6.12445 6.47033 6.06322 6.61814 6.06322 6.77227C6.06354 6.84915 6.07912 6.92521 6.10904 6.99604C6.13897 7.06686 6.18265 7.13104 6.23756 7.18486C6.34644 7.2931 6.49372 7.35385 6.64725 7.35385C6.80077 7.35385 6.94806 7.2931 7.05694 7.18486C7.1108 7.13056 7.15341 7.06616 7.18233 6.99536C7.21125 6.92456 7.2259 6.84875 7.22546 6.77227C7.22482 6.61982 7.1643 6.47372 7.05694 6.36548Z" fill="#828282"/>
</g>
</g>
</svg>
