<svg width="37" height="36" viewBox="0 0 37 36" fill="none" xmlns="http://www.w3.org/2000/svg">
<g id="Menu">
<g id="Layer 5">
<path id="Vector" d="M9.58105 17.0179H13.9929C14.8705 17.0179 15.7121 16.6693 16.3327 16.0488C16.9532 15.4283 17.3018 14.5866 17.3018 13.709V9.29718C17.3018 8.41961 16.9532 7.57797 16.3327 6.95744C15.7121 6.3369 14.8705 5.98828 13.9929 5.98828H9.58105C8.70348 5.98828 7.86185 6.3369 7.24131 6.95744C6.62077 7.57797 6.27216 8.41961 6.27216 9.29718V13.709C6.27216 14.5866 6.62077 15.4283 7.24131 16.0488C7.86185 16.6693 8.70348 17.0179 9.58105 17.0179ZM8.47809 9.29718C8.47809 9.00465 8.59429 8.72411 8.80114 8.51727C9.00799 8.31042 9.28853 8.19421 9.58105 8.19421H13.9929C14.2854 8.19421 14.566 8.31042 14.7728 8.51727C14.9797 8.72411 15.0959 9.00465 15.0959 9.29718V13.709C15.0959 14.0016 14.9797 14.2821 14.7728 14.489C14.566 14.6958 14.2854 14.812 13.9929 14.812H9.58105C9.28853 14.812 9.00799 14.6958 8.80114 14.489C8.59429 14.2821 8.47809 14.0016 8.47809 13.709V9.29718ZM22.8166 17.0179H27.2285C28.1061 17.0179 28.9477 16.6693 29.5683 16.0488C30.1888 15.4283 30.5374 14.5866 30.5374 13.709V9.29718C30.5374 8.41961 30.1888 7.57797 29.5683 6.95744C28.9477 6.3369 28.1061 5.98828 27.2285 5.98828H22.8166C21.9391 5.98828 21.0974 6.3369 20.4769 6.95744C19.8564 7.57797 19.5078 8.41961 19.5077 9.29718V13.709C19.5078 14.5866 19.8564 15.4283 20.4769 16.0488C21.0974 16.6693 21.9391 17.0179 22.8166 17.0179ZM21.7137 9.29718C21.7137 9.00465 21.8299 8.72411 22.0367 8.51727C22.2436 8.31042 22.5241 8.19421 22.8166 8.19421H27.2285C27.521 8.19421 27.8016 8.31042 28.0084 8.51727C28.2153 8.72411 28.3315 9.00465 28.3315 9.29718V13.709C28.3315 14.0016 28.2153 14.2821 28.0084 14.489C27.8016 14.6958 27.521 14.812 27.2285 14.812H22.8166C22.5241 14.812 22.2436 14.6958 22.0367 14.489C21.8299 14.2821 21.7137 14.0016 21.7137 13.709V9.29718ZM9.58105 30.2535H13.9929C14.8705 30.2535 15.7121 29.9049 16.3327 29.2844C16.9532 28.6638 17.3018 27.8222 17.3018 26.9446V22.5328C17.3018 21.6552 16.9532 20.8136 16.3327 20.193C15.7121 19.5725 14.8705 19.2239 13.9929 19.2239H9.58105C8.70348 19.2239 7.86185 19.5725 7.24131 20.193C6.62077 20.8136 6.27216 21.6552 6.27216 22.5328V26.9446C6.27216 27.8222 6.62077 28.6638 7.24131 29.2844C7.86185 29.9049 8.70348 30.2535 9.58105 30.2535ZM8.47809 22.5328C8.47809 22.2402 8.59429 21.9597 8.80114 21.7529C9.00799 21.546 9.28853 21.4298 9.58105 21.4298H13.9929C14.2854 21.4298 14.566 21.546 14.7728 21.7529C14.9797 21.9597 15.0959 22.2402 15.0959 22.5328V26.9446C15.0959 27.2372 14.9797 27.5177 14.7728 27.7246C14.566 27.9314 14.2854 28.0476 13.9929 28.0476H9.58105C9.28853 28.0476 9.00799 27.9314 8.80114 27.7246C8.59429 27.5177 8.47809 27.2372 8.47809 26.9446V22.5328ZM22.8166 30.2535H27.2285C28.1061 30.2535 28.9477 29.9049 29.5683 29.2844C30.1888 28.6638 30.5374 27.8222 30.5374 26.9446V22.5328C30.5374 21.6552 30.1888 20.8136 29.5683 20.193C28.9477 19.5725 28.1061 19.2239 27.2285 19.2239H22.8166C21.9391 19.2239 21.0974 19.5725 20.4769 20.193C19.8564 20.8136 19.5078 21.6552 19.5077 22.5328V26.9446C19.5078 27.8222 19.8564 28.6638 20.4769 29.2844C21.0974 29.9049 21.9391 30.2535 22.8166 30.2535ZM21.7137 22.5328C21.7137 22.2402 21.8299 21.9597 22.0367 21.7529C22.2436 21.546 22.5241 21.4298 22.8166 21.4298H27.2285C27.521 21.4298 27.8016 21.546 28.0084 21.7529C28.2153 21.9597 28.3315 22.2402 28.3315 22.5328V26.9446C28.3315 27.2372 28.2153 27.5177 28.0084 27.7246C27.8016 27.9314 27.521 28.0476 27.2285 28.0476H22.8166C22.5241 28.0476 22.2436 27.9314 22.0367 27.7246C21.8299 27.5177 21.7137 27.2372 21.7137 26.9446V22.5328Z" fill="#FE0000"/>
</g>
</g>
</svg>
