<svg width="28" height="29" viewBox="0 0 28 29" fill="none" xmlns="http://www.w3.org/2000/svg">
<g id="radio button">
<g id="Layer 2">
<path id="radio-button-off" d="M13.8158 26.1342C11.539 26.1342 9.31338 25.4591 7.42029 24.1942C5.5272 22.9293 4.05171 21.1314 3.18042 19.0279C2.30913 16.9244 2.08116 14.6098 2.52534 12.3767C2.96952 10.1437 4.0659 8.09248 5.67584 6.48254C7.28578 4.8726 9.33697 3.77622 11.57 3.33204C13.8031 2.88786 16.1177 3.11583 18.2212 3.98712C20.3247 4.85841 22.1226 6.3339 23.3875 8.22699C24.6524 10.1201 25.3275 12.3457 25.3275 14.6225C25.3275 17.6756 24.1147 20.6037 21.9558 22.7625C19.797 24.9214 16.8689 26.1342 13.8158 26.1342ZM13.8158 5.41319C11.9944 5.41319 10.2139 5.95331 8.6994 6.96524C7.18493 7.97718 6.00454 9.41549 5.3075 11.0983C4.61047 12.7811 4.42809 14.6328 4.78344 16.4192C5.13878 18.2056 6.01589 19.8466 7.30384 21.1345C8.59179 22.4225 10.2327 23.2996 12.0192 23.655C13.8056 24.0103 15.6573 23.8279 17.3401 23.1309C19.0229 22.4339 20.4612 21.2535 21.4731 19.739C22.4851 18.2245 23.0252 16.444 23.0252 14.6225C23.0252 12.1801 22.0549 9.83763 20.3278 8.11054C18.6008 6.38345 16.2583 5.41319 13.8158 5.41319Z" fill="#828282"/>
</g>
</g>
</svg>
