<svg width="27" height="27" viewBox="0 0 27 27" fill="none" xmlns="http://www.w3.org/2000/svg">
<g id="News Paper" clip-path="url(#clip0_14_394)">
<path id="Vector" d="M22.0082 4.21928H19.5458V3.39847C19.5458 2.74539 19.2863 2.11906 18.8245 1.65727C18.3628 1.19547 17.7364 0.936035 17.0833 0.936035H3.95035C3.29727 0.936035 2.67094 1.19547 2.20915 1.65727C1.74735 2.11906 1.48792 2.74539 1.48792 3.39847V22.2771C1.48792 23.1479 1.83383 23.983 2.44956 24.5988C3.06528 25.2145 3.90039 25.5604 4.77116 25.5604H21.1874C22.0582 25.5604 22.8933 25.2145 23.509 24.5988C24.1247 23.983 24.4707 23.1479 24.4707 22.2771V6.68172C24.4707 6.02864 24.2112 5.40231 23.7494 4.94051C23.2876 4.47872 22.6613 4.21928 22.0082 4.21928ZM3.12954 22.2771V3.39847C3.12954 3.18078 3.21602 2.972 3.36995 2.81807C3.52388 2.66414 3.73266 2.57766 3.95035 2.57766H17.0833C17.301 2.57766 17.5098 2.66414 17.6637 2.81807C17.8177 2.972 17.9042 3.18078 17.9042 3.39847V22.2771C17.9076 22.8552 18.0651 23.4219 18.3605 23.9188H4.77116C4.33578 23.9188 3.91822 23.7458 3.61036 23.438C3.3025 23.1301 3.12954 22.7125 3.12954 22.2771ZM22.829 22.2771C22.829 22.7125 22.6561 23.1301 22.3482 23.438C22.0403 23.7458 21.6228 23.9188 21.1874 23.9188C20.752 23.9188 20.3345 23.7458 20.0266 23.438C19.7187 23.1301 19.5458 22.7125 19.5458 22.2771V5.86091H22.0082C22.2259 5.86091 22.4347 5.94739 22.5886 6.10132C22.7425 6.25525 22.829 6.46403 22.829 6.68172V22.2771Z" fill="#FF0000"/>
<path id="Vector_2" d="M13.7981 5.04004H7.23159C6.7962 5.04004 6.37865 5.213 6.07079 5.52086C5.76292 5.82872 5.58997 6.24628 5.58997 6.68166V8.32329C5.58997 8.75867 5.76292 9.17623 6.07079 9.48409C6.37865 9.79195 6.7962 9.96491 7.23159 9.96491H13.7981C14.2335 9.96491 14.651 9.79195 14.9589 9.48409C15.2668 9.17623 15.4397 8.75867 15.4397 8.32329V6.68166C15.4397 6.24628 15.2668 5.82872 14.9589 5.52086C14.651 5.213 14.2335 5.04004 13.7981 5.04004ZM7.23159 8.32329V6.68166H13.7981V8.32329H7.23159ZM14.6189 11.6065H6.41078C6.19308 11.6065 5.98431 11.693 5.83038 11.8469C5.67644 12.0009 5.58997 12.2097 5.58997 12.4273C5.58997 12.645 5.67644 12.8538 5.83038 13.0077C5.98431 13.1617 6.19308 13.2482 6.41078 13.2482H14.6189C14.8366 13.2482 15.0454 13.1617 15.1993 13.0077C15.3532 12.8538 15.4397 12.645 15.4397 12.4273C15.4397 12.2097 15.3532 12.0009 15.1993 11.8469C15.0454 11.693 14.8366 11.6065 14.6189 11.6065ZM14.6189 15.7106H6.41078C6.19308 15.7106 5.98431 15.7971 5.83038 15.951C5.67644 16.1049 5.58997 16.3137 5.58997 16.5314C5.58997 16.7491 5.67644 16.9579 5.83038 17.1118C5.98431 17.2657 6.19308 17.3522 6.41078 17.3522H14.6189C14.8366 17.3522 15.0454 17.2657 15.1993 17.1118C15.3532 16.9579 15.4397 16.7491 15.4397 16.5314C15.4397 16.3137 15.3532 16.1049 15.1993 15.951C15.0454 15.7971 14.8366 15.7106 14.6189 15.7106ZM11.3356 19.8147H6.41078C6.19308 19.8147 5.98431 19.9011 5.83038 20.0551C5.67644 20.209 5.58997 20.4178 5.58997 20.6355C5.58997 20.8532 5.67644 21.0619 5.83038 21.2159C5.98431 21.3698 6.19308 21.4563 6.41078 21.4563H11.3356C11.5533 21.4563 11.7621 21.3698 11.9161 21.2159C12.07 21.0619 12.1565 20.8532 12.1565 20.6355C12.1565 20.4178 12.07 20.209 11.9161 20.0551C11.7621 19.9011 11.5533 19.8147 11.3356 19.8147Z" fill="#FF0000"/>
<path id="Vector_3" d="M14.621 21.4561C15.0744 21.4561 15.4419 21.0886 15.4419 20.6353C15.4419 20.1819 15.0744 19.8145 14.621 19.8145C14.1677 19.8145 13.8002 20.1819 13.8002 20.6353C13.8002 21.0886 14.1677 21.4561 14.621 21.4561Z" fill="#FF0000"/>
</g>
<defs>
<clipPath id="clip0_14_394">
<rect width="26.266" height="26.266" fill="white" transform="translate(0.667664 0.115234)"/>
</clipPath>
</defs>
</svg>
