<svg width="77" height="76" viewBox="0 0 77 76" fill="none" xmlns="http://www.w3.org/2000/svg">
<g id="Family">
<g id="Group">
<path id="Vector" d="M41.6343 31.0192C42.4567 31.2542 43.2792 31.3717 44.2192 31.3717C46.5691 31.3717 49.0366 30.6667 50.9165 29.7267C51.034 29.8442 51.269 29.9617 51.504 30.0792C51.974 30.3142 52.444 30.5492 52.914 30.6667C53.384 30.9017 53.7365 31.0192 54.2065 31.0192C54.559 31.1367 55.029 31.1367 55.3814 31.1367C55.8514 31.1367 56.2039 31.1367 56.6739 31.0192C57.1439 30.9017 57.4964 30.7842 57.9664 30.6667C58.5539 30.4317 59.0239 30.3142 59.4939 30.0792C59.7288 29.9617 59.9638 29.8442 60.1988 29.6092C64.1937 31.3717 68.4237 31.4892 71.7136 30.0792C72.3011 29.8442 72.771 29.2567 72.8885 28.5517C73.006 27.8467 72.771 27.1418 72.1836 26.6718C72.0661 26.5543 71.9486 26.4368 71.7136 26.3193L71.5961 26.2018C71.0086 25.7318 70.4211 25.2618 69.9511 24.6743C68.1887 22.9119 67.2487 20.7969 66.8962 18.3295C66.8962 17.8595 66.7787 17.507 66.7787 17.037C66.7787 16.6845 66.7787 16.2145 66.6612 15.862C66.5437 14.452 66.3087 12.9246 66.0737 11.7496C66.0737 11.5146 65.9562 11.2796 65.9562 11.0446C65.6037 9.51716 64.8987 8.34218 63.8413 7.28471C59.7288 3.4073 53.384 2.81981 48.5666 5.87474C46.9216 6.93222 45.7467 8.22469 45.0417 9.75215C44.8067 10.2221 44.6892 10.8096 44.5717 11.2796C44.2192 12.9246 44.1017 14.452 43.9842 15.7445C43.9842 16.097 43.9842 16.332 43.8667 16.6845V17.1545C43.8667 17.3895 43.8667 17.6245 43.8667 17.8595C43.8667 18.212 43.7492 18.5645 43.7492 18.7994C43.2792 20.9144 42.3392 22.7944 40.8118 24.3218C40.3418 24.9093 39.6368 25.3793 39.0493 25.8493C37.8743 26.6718 37.9918 27.6117 37.9918 27.9642C38.3443 29.6092 39.4018 30.4317 41.6343 31.0192ZM43.0442 26.7893C44.9242 24.9093 46.0992 22.5594 46.6866 19.8569C46.8041 19.5044 46.8041 19.0344 46.9216 18.5645C46.9216 18.3295 46.9216 17.977 46.9216 17.742V17.272C46.9216 17.037 46.9216 16.6845 47.0391 16.332C47.1566 15.157 47.2741 13.6296 47.6266 12.2196C47.7441 11.8671 47.8616 11.5146 47.9791 11.1621C48.4491 10.1046 49.1541 9.28216 50.3291 8.57718C54.089 6.22723 58.9064 6.69722 62.0788 9.63465C62.6663 10.2221 63.0188 10.9271 63.2538 11.8671C63.2538 12.1021 63.2538 12.2196 63.2538 12.3371C63.4888 13.5121 63.6063 14.8045 63.7238 16.2145C63.7238 16.567 63.7238 16.9195 63.7238 17.272C63.7238 17.8595 63.8413 18.3295 63.8413 18.7994C64.1937 21.8544 65.4862 24.5568 67.7187 26.7893C68.0712 27.1418 68.4237 27.4943 68.7761 27.8467C65.9562 28.4342 62.7838 27.6117 60.5513 26.5543L59.7288 26.0843L59.0239 26.6718C58.9064 26.7893 58.7889 26.9068 58.6714 27.0243C58.4364 27.1418 58.2014 27.2593 58.0839 27.3768C57.7314 27.4943 57.3789 27.7292 57.0264 27.8467L56.7914 27.9642C56.5564 28.0817 56.3214 28.0817 56.0864 28.1992C55.8514 28.1992 55.6164 28.3167 55.3814 28.1992C55.1465 28.1992 54.9115 28.1992 54.794 28.1992C54.559 28.1992 54.324 28.0817 53.9715 27.9642H53.854C53.5015 27.8467 53.149 27.7292 52.7965 27.4942C52.5615 27.3768 52.3265 27.2593 52.209 27.1418C52.0915 27.0243 51.974 27.0243 51.8565 26.9068L51.034 26.3193L50.2116 26.9068C47.9791 28.3167 44.5717 28.9042 42.3392 28.3167C42.1042 28.3167 41.8693 28.1992 41.7518 28.1992C42.2217 27.6117 42.6917 27.2593 43.0442 26.7893Z" fill="#FE0000"/>
<path id="Vector_2" d="M11.5517 19.0345C11.5517 19.387 11.6692 19.7395 11.6692 20.092C11.6692 20.2095 11.6692 20.4445 11.7867 20.562C12.0217 22.0894 12.7266 23.3819 13.9016 24.0869C14.6066 26.9068 16.1341 29.0218 18.249 30.4317C18.484 30.6667 18.8365 30.7842 19.189 31.0192C19.659 31.2542 20.129 31.4892 20.599 31.6067C21.069 31.8417 21.4214 31.9592 21.8914 31.9592C22.2439 32.0767 22.5964 32.0767 22.9489 32.0767C23.0664 32.0767 23.0664 32.0767 23.1839 32.0767C23.5364 32.0767 23.8889 32.0767 24.3589 31.9592C24.8289 31.8417 25.1814 31.7242 25.5339 31.6067H25.6514C26.2388 31.3717 26.7088 31.2542 27.1788 31.0192C27.5313 30.9017 27.7663 30.6667 28.0013 30.4317C29.1763 29.6093 30.1163 28.5518 30.9387 27.3768C31.2912 26.7893 31.5262 26.2018 31.8787 25.4969C31.9962 25.2619 32.1137 24.9094 32.1137 24.6744C32.1137 24.5569 32.2312 24.3219 32.2312 24.2044C32.3487 24.0869 32.4662 23.9694 32.7012 23.7344C32.8187 23.6169 32.9362 23.4994 33.0537 23.3819C34.1112 22.4419 34.3462 21.267 34.4637 20.4445C34.4637 20.327 34.4637 20.092 34.5812 19.9745C34.5812 19.622 34.6986 19.2695 34.6986 18.917C34.6986 18.682 34.6986 18.3295 34.6986 18.0945C34.6986 17.1545 34.2287 15.9796 33.2887 15.3921C33.2887 15.0396 33.2887 14.8046 33.4062 14.5696C33.6412 13.6296 33.7587 12.6896 33.7587 11.7497C33.8762 8.45974 32.2312 5.7573 29.2938 4.46483C28.9413 4.34734 28.7063 4.22984 28.3538 4.11234C26.7088 3.52486 24.9464 3.17236 23.0664 3.17236C22.7139 3.17236 22.2439 3.17236 21.8914 3.17236C20.834 3.28986 19.3065 3.28986 17.8965 3.99484C17.779 4.22984 17.544 4.22984 17.4265 4.34734C16.8391 4.69983 16.3691 5.16982 16.0166 5.75731L15.8991 5.9923C15.7816 6.22729 15.7816 6.22729 15.6641 6.34479C15.4291 6.57979 15.1941 6.69728 14.9591 6.81478C14.2541 7.04978 13.7841 7.51976 13.4316 8.10725C12.9616 8.92973 12.7266 9.86971 12.7266 11.0447C12.7266 12.1022 12.7266 13.1596 12.8441 13.9821C12.8441 14.3346 12.9616 14.8046 13.0791 15.2746C13.0791 15.3921 13.0791 15.3921 13.0791 15.5096C11.9042 15.9796 11.4342 17.1545 11.4342 18.212C11.4342 18.447 11.4342 18.7995 11.5517 19.0345ZM14.4891 18.212L15.0766 18.0945L15.3116 17.977C15.8991 17.6245 16.1341 17.1545 16.2516 16.4496C16.2516 15.7446 16.1341 15.1571 16.0166 14.5696C16.0166 14.3346 15.8991 13.9821 15.8991 13.7471C15.8991 13.0421 15.7816 12.1022 15.7816 11.0447C15.7816 10.3397 15.8991 9.86971 16.1341 9.51722C16.1341 9.51722 16.1341 9.51722 16.2516 9.39972C16.7216 9.16473 17.074 8.92973 17.544 8.57724C18.014 8.22475 18.249 7.87226 18.484 7.51976L18.6015 7.28477C18.719 7.04978 18.954 6.81478 19.189 6.69728L19.3065 6.57979C20.129 6.22729 21.304 6.1098 22.2439 6.1098C22.5964 6.1098 22.8314 6.1098 23.1839 6.1098C24.7114 6.1098 26.1213 6.34479 27.5313 6.93228C27.7663 7.04978 28.0013 7.16727 28.2363 7.28477C30.1163 8.10725 31.0562 9.63472 30.9387 11.7497C30.9387 12.4547 30.8212 13.2771 30.5862 13.9821C30.4687 14.4521 30.4687 14.9221 30.3512 15.2746V15.6271C30.1163 15.9796 30.1163 16.5671 30.3512 17.1545C30.5862 17.6245 30.9387 18.0945 31.6437 18.212V18.3295C31.6437 18.5645 31.6437 18.682 31.6437 18.917C31.6437 19.152 31.6437 19.5045 31.5262 19.7395C31.5262 19.9745 31.5262 20.092 31.4087 20.327C31.2912 21.032 31.1737 21.267 30.9387 21.5019C30.8212 21.6194 30.7037 21.6194 30.7037 21.7369C30.4687 21.9719 30.1163 22.2069 29.8813 22.5594C29.4113 23.1469 29.2938 23.7344 29.1763 24.2044C29.1763 24.3219 29.0588 24.4394 29.0588 24.6744C28.8238 25.2619 28.5888 25.7319 28.3538 26.0843C27.7663 26.9068 27.0613 27.7293 26.2388 28.3168C26.0038 28.4343 25.7688 28.5518 25.6514 28.6693C25.2989 28.7868 24.9464 29.0218 24.5939 29.1393L24.3589 29.2568C24.1239 29.3743 23.8889 29.3743 23.6539 29.4918C23.4189 29.4918 23.1839 29.6093 22.9489 29.4918C22.7139 29.4918 22.4789 29.4918 22.3614 29.4918C22.1264 29.4918 21.8914 29.3743 21.6564 29.2568H21.5389C21.1865 29.1393 20.834 29.0218 20.4815 28.7868C20.2465 28.6693 20.0115 28.5518 19.894 28.4343C18.3665 27.3768 17.309 25.8493 16.7216 23.6169C16.4866 22.7944 16.1341 22.4419 15.7816 22.2069L15.5466 22.0894C14.9591 21.7369 14.7241 21.032 14.7241 20.562C14.7241 20.327 14.7241 20.2095 14.6066 19.9745C14.6066 19.7395 14.4891 19.5045 14.4891 19.152C14.4891 18.917 14.4891 18.7995 14.4891 18.5645V18.212Z" fill="#FE0000"/>
<path id="Vector_3" d="M64.6614 33.9565H64.3089H64.1914C63.7214 34.074 63.134 34.1915 62.7815 34.544C60.314 36.5415 57.8466 37.599 55.1441 37.599C54.9091 37.599 54.6742 37.599 54.3217 37.599C54.2042 37.599 53.9692 37.599 53.8517 37.599C51.2667 37.4815 48.9168 36.424 46.4493 34.544C45.9794 34.1915 45.3919 33.9565 44.6869 33.9565C44.5694 33.9565 44.4519 33.9565 44.3344 33.9565C42.6894 33.9565 40.927 34.4265 39.3995 35.3665C39.047 35.484 38.812 35.6015 38.342 35.6015C38.107 35.6015 37.7545 35.484 37.5195 35.3665C35.8746 34.4265 34.1121 33.9565 32.2322 33.9565H31.7622H31.6447C31.1747 34.074 30.7047 34.1915 30.3522 34.544C27.8848 36.5415 25.4173 37.599 22.7149 37.599C22.4799 37.599 22.2449 37.599 21.8924 37.599C21.7749 37.599 21.5399 37.599 21.4224 37.599C18.8375 37.4815 16.37 36.424 14.0201 34.544C13.5501 34.1915 12.9626 33.9565 12.2576 33.9565C12.1401 33.9565 12.0226 33.9565 12.0226 33.9565C6.97024 34.074 2.27034 38.1864 1.56536 43.0038C0.977872 46.7638 1.68286 50.8762 3.56281 54.8711C5.09028 58.396 7.44023 61.5684 10.4952 64.5058C12.9626 66.8558 15.9 68.7358 18.72 70.6157C19.425 71.0857 20.2474 71.5557 20.9524 72.1432L21.1874 72.2607C21.6574 72.6132 22.3624 73.0832 23.3024 72.7307C24.2423 72.3782 24.4773 71.4382 24.5948 71.0857C24.7123 70.6157 24.8298 70.1457 24.8298 69.6757C24.8298 69.2057 24.9473 68.8533 25.0648 68.5008C25.7698 66.2683 26.7098 65.0933 28.4722 64.6234C28.5897 64.6234 28.7072 64.6234 28.7072 64.6234C30.7047 66.5033 33.2896 67.5608 36.3446 67.7958C37.167 67.7958 37.872 67.7958 38.4595 67.7958C41.162 67.5608 43.5119 66.5033 45.5094 64.7408H45.6269C45.9794 64.7408 46.2143 64.8583 46.4493 64.9758C47.3893 65.3283 48.0943 66.0333 48.5643 67.2083C49.0343 68.3833 49.2693 69.5582 49.5043 70.8507C49.6218 71.3207 49.7393 71.7907 49.7393 72.1432L49.8568 72.7307L50.4442 73.0832C50.6792 73.2007 50.9142 73.3181 51.1492 73.3181C51.6192 73.3181 52.3242 73.0832 53.8517 72.6132H53.9692C54.7916 72.3782 55.6141 72.0257 56.2016 71.7907C57.9641 71.0857 59.4915 70.2632 61.019 69.3232C63.4865 67.6783 65.8364 65.6808 67.8339 63.2134C69.8313 60.7459 74.5312 54.4011 75.2362 47.1162C75.2362 46.6463 75.3537 46.1763 75.3537 45.8238C75.3537 44.8838 75.3537 44.0613 75.2362 43.1213C74.6487 38.0689 69.8313 33.9565 64.6614 33.9565ZM72.5338 46.7638C72.0638 51.2287 69.5963 56.6335 65.8364 61.3334C64.0739 63.5659 61.959 65.3283 59.7265 66.8558C58.4341 67.6783 57.0241 68.5008 55.3791 69.0882C54.7916 69.3232 54.0867 69.5582 53.3817 69.7932L53.1467 69.9107C52.9117 69.9107 52.6767 70.0282 52.5592 70.0282C52.3242 68.7358 51.9717 67.4433 51.5017 66.1508C50.7967 64.2709 49.5043 62.8609 47.7418 62.2734C47.3893 62.1559 46.9193 62.0384 46.3318 61.9209C46.2143 61.9209 45.9794 61.9209 45.8619 61.9209C45.0394 61.9209 44.2169 62.1559 43.7469 62.6259C42.1019 64.0359 40.3395 64.8583 38.2245 64.9758C37.7545 64.9758 37.2845 65.0933 36.5796 64.9758C34.2296 64.8583 32.2322 64.0359 30.8222 62.6259L30.7047 62.5084C29.8822 61.8034 28.9422 61.5684 27.8848 61.9209C25.0648 62.6259 23.3024 64.5058 22.3624 67.7958C22.2449 68.2658 22.1274 68.8533 22.1274 69.2057C21.6574 68.8533 21.0699 68.5008 20.4824 68.1483C17.78 66.3858 15.0776 64.6233 12.7276 62.5084C9.90767 59.806 7.79272 56.8685 6.38275 53.6961C4.73779 50.1712 4.2678 46.6463 4.62029 43.3563C5.09028 39.8314 8.6152 36.894 12.2576 36.7765H12.3751C15.195 39.1264 18.25 40.3014 21.4224 40.4189C21.6574 40.4189 21.8924 40.4189 22.0099 40.4189C22.3624 40.4189 22.7149 40.4189 22.9499 40.4189C26.2398 40.3014 29.4122 39.1264 32.2322 36.7765H32.4672C33.6421 36.7765 34.9346 37.129 36.1096 37.834C36.8146 38.1864 37.5195 38.4214 38.342 38.4214C39.282 38.4214 40.1045 38.3039 40.927 37.834C42.1019 37.129 43.3944 36.7765 44.5694 36.7765H44.6869C47.5068 39.1264 50.5617 40.3014 53.7342 40.5364C53.9692 40.5364 54.2042 40.5364 54.3217 40.5364C54.6742 40.5364 55.0266 40.5364 55.2616 40.5364C58.5516 40.4189 61.724 39.2439 64.6614 36.894H64.7789C68.4213 36.894 71.9463 39.9489 72.5338 43.4738C72.6512 44.1788 72.6512 44.8838 72.6512 45.5888C72.5338 46.0588 72.5338 46.4113 72.5338 46.7638Z" fill="#FE0000"/>
<path id="Vector_4" d="M44.8034 49.8188C44.8034 49.7013 44.8034 49.7013 44.8034 49.5838C45.0384 48.8788 45.0384 48.2913 45.1559 47.5863C45.2734 45.2364 43.9809 43.2389 41.631 42.1814C41.396 42.0639 41.2785 42.0639 41.0435 41.9464C40.221 41.5939 39.281 41.4764 38.4586 41.359C37.8711 41.2415 37.1661 41.2415 36.4611 41.2415H36.3436C35.5211 41.2415 34.4636 41.359 33.4062 41.8289C33.2887 41.8289 33.1712 41.9464 33.0537 42.0639C32.5837 42.2989 32.2312 42.6514 31.8787 43.1214L31.7612 43.2389V43.3564C31.5262 43.4739 31.4087 43.5914 31.2912 43.5914C30.7037 43.8264 30.2337 44.1789 29.9987 44.6489C29.6463 45.2364 29.4113 45.9413 29.4113 46.7638C29.4113 47.3513 29.4113 47.9388 29.4113 48.8788C29.4113 49.1138 29.4113 49.3488 29.5288 49.5838C28.8238 50.0538 28.4713 50.8762 28.4713 51.5812V51.6987C28.4713 52.5212 28.4713 53.3437 28.5888 54.1662C28.7063 54.9886 29.1763 55.6936 29.9987 56.0461C30.4687 57.4561 31.1737 58.6311 32.1137 59.571C33.4062 60.981 35.1686 61.8035 36.9311 61.8035C37.4011 61.8035 37.8711 61.8035 38.3411 61.686C39.516 61.451 40.5735 60.746 41.5135 59.9235C42.571 58.8661 43.3934 57.5736 43.8634 56.0461C44.3334 55.8111 44.6859 55.4586 44.9209 54.9886C45.3909 54.0487 45.3909 53.1087 45.3909 52.4037C45.3909 52.2862 45.3909 52.1687 45.3909 51.9337V51.5812C45.7434 51.1112 45.3909 50.2887 44.8034 49.8188ZM42.6885 52.6387C42.6885 53.1087 42.6885 53.4612 42.571 53.6962C41.9835 53.9312 41.5135 54.4012 41.396 55.1061C41.0435 56.2811 40.456 57.2211 39.751 57.9261C39.1635 58.5136 38.5761 58.8661 37.8711 58.9835C36.6961 59.2185 35.4036 58.8661 34.4636 57.8086C33.7587 57.1036 33.2887 56.1636 32.9362 55.1061C32.7012 54.2837 32.2312 53.8137 31.7612 53.6962C31.6437 53.2262 31.6437 52.7562 31.6437 52.2862L31.8787 52.1687C32.4662 51.9337 32.7012 51.3462 32.8187 50.6412C32.8187 50.1713 32.7012 49.7013 32.7012 49.2313C32.7012 49.1138 32.5837 48.8788 32.5837 48.7613C32.5837 48.0563 32.4662 47.5863 32.5837 46.9988C32.5837 46.6463 32.7012 46.4113 32.7012 46.2938C33.0537 46.1763 33.4062 45.9413 33.6412 45.7064C33.9937 45.3539 34.2287 45.1189 34.3461 44.8839V44.7664C34.4636 44.6489 34.4636 44.5314 34.5811 44.5314H34.6986C35.1686 44.2964 35.8736 44.2964 36.5786 44.1789C37.0486 44.1789 37.5186 44.1789 38.1061 44.1789C38.811 44.2964 39.3985 44.4139 40.1035 44.6489C40.221 44.6489 40.456 44.7664 40.5735 44.8839C41.631 45.3539 42.2185 46.1763 42.2185 47.3513C42.2185 47.8213 42.101 48.2913 41.9835 48.7613C41.866 48.9963 41.866 49.3488 41.866 49.7013V49.9363C41.7485 50.1713 41.7485 50.7587 41.9835 51.2287C42.101 51.4637 42.336 51.8162 42.806 52.0512C42.6885 52.2862 42.6885 52.5212 42.6885 52.6387Z" fill="#FE0000"/>
</g>
</g>
</svg>
