<svg width="59" height="59" viewBox="0 0 59 59" fill="none" xmlns="http://www.w3.org/2000/svg">
<g id="job">
<path id="Vector" fill-rule="evenodd" clip-rule="evenodd" d="M12.7236 12.3899C14.446 12.1569 16.5551 12.1161 19.0918 12.1112C19.2425 10.1498 20.1282 8.31753 21.5716 6.98095C23.0151 5.64437 24.91 4.90201 26.8772 4.90234H31.6816C33.648 4.90257 35.5419 5.64487 36.9848 6.98089C38.4277 8.31691 39.3133 10.1482 39.4646 12.1088C42.0037 12.1161 44.1128 12.1569 45.8351 12.3899C47.9971 12.6782 49.8179 13.3027 51.264 14.7464C52.7101 16.1925 53.3299 18.0134 53.623 20.1753C53.9016 22.258 53.9016 24.9076 53.9016 28.1914V38.0643C53.9016 41.348 53.9016 43.9976 53.623 46.0803C53.3299 48.2423 52.7101 50.0631 51.264 51.5092C49.8179 52.9553 47.9971 53.5751 45.8351 53.8681C43.7524 54.1468 41.1029 54.1468 37.8191 54.1468H20.7397C17.4559 54.1468 14.8063 54.1468 12.7236 53.8681C10.5617 53.5751 8.74085 52.9553 7.29475 51.5092C5.84864 50.0631 5.22888 48.2423 4.93822 46.0803C4.65717 43.9976 4.65717 41.348 4.65717 38.0643V28.1914C4.65717 24.9076 4.65717 22.258 4.93822 20.1753C5.22648 18.0134 5.85104 16.1925 7.29475 14.7464C8.74085 13.3003 10.5617 12.6806 12.7236 12.3899ZM35.8421 12.1088H22.7167C22.8611 11.1084 23.3611 10.1934 24.1253 9.53166C24.8894 8.86989 25.8664 8.50562 26.8772 8.5056H31.6816C32.6924 8.50562 33.6694 8.86989 34.4335 9.53166C35.1976 10.1934 35.6977 11.1084 35.8421 12.1088ZM13.2041 50.2961C11.4409 50.0583 10.5088 49.6235 9.84345 48.9605C9.17805 48.2951 8.74566 47.3631 8.50784 45.5975C8.26522 43.7838 8.26042 41.3793 8.26042 37.9322V29.8368C17.1196 33.5554 22.2939 35.5876 27.742 35.8423C28.7653 35.8903 29.7934 35.8903 30.8168 35.8423C36.2649 35.5876 41.4392 33.5554 50.2984 29.8368V37.9322C50.2984 41.3793 50.2935 43.7838 50.0509 45.5999C49.8131 47.3631 49.3783 48.2951 48.7153 48.9605C48.0499 49.6259 47.1179 50.0583 45.3523 50.2961C43.5387 50.5387 41.1341 50.5435 37.687 50.5435H20.8718C17.4247 50.5435 15.0177 50.5387 13.2041 50.2961ZM50.2935 25.9285C40.3846 30.0963 35.6187 32.0108 30.6486 32.2414C29.7358 32.2847 28.823 32.2847 27.9102 32.2414C22.9377 32.0108 18.1742 30.0963 8.26522 25.9285C8.27723 23.7113 8.32528 22.0178 8.50784 20.6558C8.74566 18.8926 9.18045 17.9605 9.84345 17.2951C10.5088 16.6297 11.4409 16.1973 13.2065 15.9595C15.0177 15.7169 17.4247 15.7121 20.8718 15.7121H37.687C41.1341 15.7121 43.5387 15.7169 45.3547 15.9595C47.1179 16.1973 48.0499 16.6321 48.7153 17.2951C49.3807 17.9605 49.8131 18.8926 50.0509 20.6582C50.2335 22.0178 50.2815 23.7089 50.2935 25.9285Z" fill="#FE0000"/>
</g>
</svg>
