<svg width="61" height="61" viewBox="0 0 61 61" fill="none" xmlns="http://www.w3.org/2000/svg">
<g id="Mecca" clip-path="url(#clip0_14_232)">
<path id="Vector" d="M7.87783 7.77627L30.1828 2.13062L58.8738 9.34965L30.1828 16.5687L1.49176 9.34965" stroke="#FE0000" stroke-width="2.50661" stroke-miterlimit="10" stroke-linecap="round" stroke-linejoin="round"/>
<path id="Vector_2" d="M58.8696 9.34937V9.53447" stroke="#FE0000" stroke-width="2.50661" stroke-miterlimit="10" stroke-linecap="round" stroke-linejoin="round"/>
<path id="Vector_3" d="M58.8738 13.6993V51.7381L30.1828 58.9571L1.49176 51.7381V9.34937" stroke="#FE0000" stroke-width="2.50661" stroke-miterlimit="10" stroke-linecap="round" stroke-linejoin="round"/>
<path id="Vector_4" d="M58.8721 18.0493L52.5786 19.6227" stroke="#FE0000" stroke-width="2.50661" stroke-linecap="round" stroke-linejoin="round"/>
<path id="Vector_5" d="M52.5778 19.6228L30.1803 25.2685L7.78278 19.6228" stroke="#FE0000" stroke-width="2.50661" stroke-linecap="round" stroke-linejoin="round"/>
<path id="Vector_6" d="M7.78528 19.6227L1.49176 18.0493" stroke="#FE0000" stroke-width="2.50661" stroke-linecap="round" stroke-linejoin="round"/>
<path id="Vector_7" d="M30.1807 58.9574V38.3184" stroke="#FE0000" stroke-width="2.50661" stroke-miterlimit="10" stroke-linecap="round" stroke-linejoin="round"/>
<path id="Vector_8" d="M30.1807 30.1735V16.5684" stroke="#FE0000" stroke-width="2.50661" stroke-miterlimit="10" stroke-linecap="round" stroke-linejoin="round"/>
<path id="Vector_9" d="M15.8373 39.3362C14.9118 43.501 12.1352 45.9074 8.80335 44.9819C4.73107 43.9638 1.49176 38.3181 1.49176 32.4874C1.49176 32.0246 1.49176 31.6544 1.58431 31.1917L2.32473 31.3768C3.5279 35.1714 6.0268 38.133 8.8959 38.966C11.8576 39.799 14.3565 37.9479 15.5596 34.7086C15.5596 34.7086 15.6522 34.7086 15.7447 34.7086C15.6522 35.1714 15.6522 35.6341 15.6522 36.0043C15.5596 37.2075 15.6522 38.3181 15.8373 39.3362Z" stroke="#FE0000" stroke-width="2.50661" stroke-miterlimit="10" stroke-linecap="round" stroke-linejoin="round"/>
<path id="Vector_10" d="M30.1804 40.1691C30.1804 45.9999 26.8485 49.7945 22.8688 48.6839C19.6295 47.7584 16.8529 43.9637 15.9274 39.4287C15.7423 38.4106 15.5572 37.3 15.5572 36.1894C15.5572 35.7266 15.5572 35.1713 15.6497 34.7086L16.1125 34.8011H16.2976C17.5008 38.6883 19.9997 41.835 22.8688 42.668C25.8304 43.501 28.3293 41.6499 29.5325 38.4106C29.5325 38.3181 30.0878 38.4106 30.0878 38.4106C30.1804 38.9659 30.1804 39.5212 30.1804 40.1691ZM58.8714 32.4873C58.8714 38.3181 55.6321 43.8712 51.5598 44.9818C48.228 45.9073 45.4514 43.4084 44.5259 39.3361C44.3408 38.4106 44.2482 37.4851 44.2482 36.467C44.2482 36.0043 44.2482 35.449 44.3408 34.9862C44.3408 34.8937 44.9886 34.8011 44.9886 34.8011C46.1918 38.0404 48.6907 39.7989 51.5598 38.9659C54.3364 38.2255 56.8353 35.2639 58.0384 31.5618C58.0384 31.4692 58.7789 31.3767 58.8714 31.4692C58.8714 31.8395 58.8714 32.2097 58.8714 32.4873Z" stroke="#FE0000" stroke-width="2.50661" stroke-miterlimit="10" stroke-linecap="round" stroke-linejoin="round"/>
<path id="Vector_11" d="M44.5267 39.3363C43.6011 43.8713 40.8246 47.7585 37.5853 48.5915C33.513 49.7021 30.2737 45.9075 30.2737 40.0767C30.2737 39.5214 30.2737 38.9661 30.3662 38.4108C30.3662 38.3182 30.9215 38.2257 30.9215 38.2257C32.0322 41.5575 34.6236 43.4086 37.5853 42.5756C40.4544 41.8352 42.9533 38.6884 44.1564 34.8938C44.1564 34.8938 44.3415 34.8938 44.5267 34.8938C44.4341 34.8938 44.3415 34.9863 44.3415 34.9863C44.3415 35.4491 44.249 36.0044 44.249 36.4672C44.249 37.4852 44.3415 38.5033 44.5267 39.3363Z" stroke="#FE0000" stroke-width="2.50661" stroke-miterlimit="10" stroke-linecap="round" stroke-linejoin="round"/>
<path id="Vector_12" d="M1.49176 22.8623V31.0994L30.1828 38.3184L58.8738 31.0994V22.8623L30.1828 30.1739L5.93424 24.0655" stroke="#FE0000" stroke-width="2.50661" stroke-miterlimit="10" stroke-linecap="round" stroke-linejoin="round"/>
</g>
<defs>
<clipPath id="clip0_14_232">
<rect width="60.1586" height="60.1586" fill="white" transform="translate(0.10321 0.4646)"/>
</clipPath>
</defs>
</svg>
