<svg width="69" height="68" viewBox="0 0 69 68" fill="none" xmlns="http://www.w3.org/2000/svg">
<g id="Travel">
<path id="Vector" d="M2.08679 63.5731L6.3167 57.9332M6.3167 57.9332C4.06075 57.9332 2.08679 55.9593 2.08679 53.7033C2.08679 51.4474 4.06075 49.4734 6.3167 49.4734H51.1537L58.4855 32.2718C59.3315 30.2979 61.8694 29.1699 64.1254 30.0159C66.3813 30.8619 67.5093 33.1178 66.6633 35.3738L59.0495 55.1133C58.4855 56.8053 56.7935 57.9332 55.1016 57.9332H6.3167Z" stroke="#FE0000" stroke-width="1.2533" stroke-linecap="round" stroke-linejoin="round"/>
<path id="Vector_2" d="M52.8456 41.0137H35.926L33.1061 43.8336M58.4855 63.5731L54.2556 57.9333M38.746 41.0137V49.4735M41.5659 29.7339L30.2862 4.35449M41.5659 29.7339L58.4855 26.914L30.2862 4.35449M41.5659 29.7339H19.0064M30.2862 4.35449L19.0064 29.7339M30.2862 4.35449L2.08679 26.914L19.0064 29.7339M30.2862 29.7339V49.4735M30.2862 57.9333V63.5731" stroke="#FE0000" stroke-width="1.2533" stroke-linecap="round" stroke-linejoin="round"/>
</g>
</svg>
