<svg width="112" height="112" viewBox="0 0 112 112" fill="none" xmlns="http://www.w3.org/2000/svg">
<g id="Australia">
<path id="Vector" d="M56.0294 4.39111C42.3083 4.39111 29.1493 9.84177 19.447 19.544C9.7448 29.2463 4.29414 42.4053 4.29414 56.1264C4.29414 69.8474 9.7448 83.0065 19.447 92.7087C29.1493 102.411 42.3083 107.862 56.0294 107.862C69.7504 107.862 82.9095 102.411 92.6117 92.7087C102.314 83.0065 107.765 69.8474 107.765 56.1264C107.765 42.4053 102.314 29.2463 92.6117 19.544C82.9095 9.84177 69.7504 4.39111 56.0294 4.39111Z" fill="#2B4896"/>
<path id="Vector_2" d="M92.4688 61.2915L90.755 60.0456L89.0381 61.2872L89.6934 59.2723L87.9818 58.0234L90.1008 58.024L90.76 56.0102L91.414 58.0257L93.533 58.03L91.8182 59.2749L92.4688 61.2915ZM34.6872 83.8468L30.156 79.0772L25.5913 83.8188L26.4951 77.3023L19.942 76.6901L25.6003 73.3338L21.9933 67.8283L28.1453 70.1596L30.2004 63.9072L32.2136 70.1704L38.3834 67.8789L34.7417 73.3577L40.3802 76.7528L33.826 77.3219L34.6872 83.8468ZM68.4244 56.1367L66.2687 53.8679L64.0976 56.1234L64.5276 53.0236L61.4106 52.7326L64.1019 51.1359L62.386 48.5172L65.3125 49.6261L66.2901 46.6519L67.2476 49.631L70.1825 48.5411L68.4502 51.1473L71.1323 52.7623L68.0146 53.0328L68.4244 56.1367ZM85.9143 83.8293L83.7589 81.5605L81.5878 83.816L82.0176 80.7162L78.9006 80.4249L81.5919 78.8285L79.8762 76.2098L82.8025 77.3187L83.78 74.3445L84.7378 77.3236L87.6725 76.2337L85.9404 78.8399L88.6222 80.4549L85.5048 80.7254L85.9143 83.8293ZM85.9143 37.1891L83.7589 34.9203L81.5878 37.1758L82.0176 34.076L78.9006 33.785L81.5919 32.1883L79.8762 29.5696L82.8025 30.6785L83.78 27.7043L84.7378 30.6834L87.6725 29.5935L85.9404 32.1997L88.6222 33.8147L85.5048 34.0855L85.9143 37.1891ZM101.461 51.4726L99.3056 49.204L97.1344 51.4594L97.5643 48.3596L94.4472 48.0684L97.1385 46.472L95.4228 43.8531L98.3491 44.9619L99.3269 41.9878L100.284 44.9671L103.219 43.8772L101.487 46.4834L104.169 48.0982L101.051 48.3689L101.461 51.4726Z" fill="white"/>
<path id="Vector_3" d="M56.0294 4.39111C42.3083 4.39111 29.1493 9.84177 19.447 19.544C9.7448 29.2463 4.29414 42.4053 4.29414 56.1264H56.0294V4.39111Z" fill="#2B4896"/>
<path id="Vector_4" d="M56.0294 4.39111C54.8175 4.40921 53.6065 4.46989 52.3989 4.57305L29.8143 29.6237L27.1637 27.315L27.1253 27.3575L20.1079 18.9725C18.8583 20.1804 17.6704 21.4505 16.5487 22.778L23.6278 31.2376L4.42154 52.5413C4.33765 53.7345 4.29515 54.9302 4.29414 56.1264H8.11393L30.1732 31.3758H30.9348L30.4715 31.794L52.4109 56.1264H56.0294V52.418L36.1281 30.3428L56.0294 8.27039V4.39111Z" fill="white"/>
<path id="Vector_5" d="M27.9421 32.2497L25.9029 32.4497V32.3555L4.29414 56.1259V56.1264H6.50324L27.9421 32.2497ZM54.0359 4.39111L30.1348 30.6899H32.3174V30.7843L56.0294 4.69958V4.39111H54.0359Z" fill="#E74C3C"/>
<path id="Vector_6" d="M18.3739 20.7014C17.9929 21.1211 17.6189 21.5469 17.2519 21.9788L27.0277 33.5667L28.3153 32.4815L18.3739 20.7014Z" fill="#E74C3C"/>
<path id="Vector_7" d="M34.4728 9.15576C31.4441 10.5432 28.5565 12.2198 25.8503 14.1624V25.9473H14.0878C12.1404 28.653 10.459 31.5406 9.06713 34.5698H25.8503V56.1262H34.4728V34.5698H56.0292V25.9473H34.4728V9.15576Z" fill="white"/>
<path id="Vector_8" d="M33.1831 28.7365L31.9367 29.8683L55.8067 56.126H56.0294V53.8749L33.1831 28.7363V28.7365Z" fill="#E74C3C"/>
<path id="Vector_9" d="M32.748 9.98901C30.9677 10.88 29.2403 11.8731 27.5745 12.9631V27.6719H12.8537C11.7496 29.3368 10.7429 31.0642 9.83858 32.8454H27.5745V56.1263H32.748V32.8454H56.0289V27.6719H32.748V9.98901Z" fill="#E74C3C"/>
</g>
</svg>
