<svg width="112" height="112" viewBox="0 0 112 112" fill="none" xmlns="http://www.w3.org/2000/svg">
<g id="south Korea" clip-path="url(#clip0_0_2756)">
<g id="Group">
<path id="Vector" d="M55.9726 111.31C86.45 111.31 111.157 86.6036 111.157 56.1262C111.157 25.6487 86.45 0.941895 55.9726 0.941895C25.4952 0.941895 0.78833 25.6487 0.78833 56.1262C0.78833 86.6036 25.4952 111.31 55.9726 111.31Z" fill="white"/>
<g id="Group_2">
<path id="Vector_2" fill-rule="evenodd" clip-rule="evenodd" d="M15.6652 35.4411L24.6671 22.0957L26.5733 23.3833L17.5713 36.7264L15.6652 35.4411ZM19.4775 38.0118L28.4794 24.6687L30.3856 25.954L21.3836 39.2971L19.4775 38.0118ZM23.2898 40.5824L32.2917 27.2393L34.1979 28.527L25.1959 41.8701L23.2898 40.5824ZM25.1959 70.3819L34.1979 83.7273L32.2894 85.0127L23.2898 71.6696L25.1982 70.3819H25.1959ZM21.3836 72.9572L25.2419 78.6757L23.3335 79.9633L19.4775 74.2425L21.3859 72.9549L21.3836 72.9572ZM26.5273 80.5818L30.3856 86.3003L28.4771 87.5879L24.6211 81.8672L26.5296 80.5795L26.5273 80.5818ZM17.5736 75.5256L26.5756 88.8687L24.6671 90.1563L15.6675 76.8109L17.5736 75.5256ZM87.2782 22.0957L91.1365 27.8142L89.2304 29.1018L85.3721 23.3833L87.2782 22.0957ZM92.4219 29.7226L96.2802 35.4411L94.3717 36.7264L90.5157 31.008L92.4242 29.7203L92.4219 29.7226ZM83.4659 24.6687L92.4679 38.0118L90.5594 39.2994L81.5598 25.954L83.4682 24.6664L83.4659 24.6687ZM79.6559 27.2393L83.5142 32.9578L81.6058 34.2454L77.7498 28.5247L79.6559 27.2393ZM84.7995 34.864L88.6578 40.5824L86.7494 41.8701L82.8934 36.1516L84.7995 34.864ZM77.7475 83.7273L81.6058 78.0089L83.5119 79.2942L79.6536 85.0127L77.7475 83.725V83.7273ZM82.8911 76.1004L86.7494 70.3819L88.6555 71.6696L84.7972 77.388L82.8911 76.1004ZM81.5598 86.298L85.4181 80.5795L87.3242 81.8672L83.4659 87.5833L81.5598 86.298ZM86.7034 78.6734L90.5617 72.9549L92.4679 74.2402L88.6096 79.9587L86.7034 78.6734ZM85.3721 88.8687L89.2304 83.1502L91.1365 84.4378L87.2782 90.1563L85.3721 88.8687ZM90.5157 81.244L94.374 75.5256L96.2802 76.8132L92.4219 82.5294L90.5157 81.244Z" fill="black"/>
</g>
<path id="Vector_3" d="M55.971 74.5207C66.1301 74.5207 74.3657 66.2851 74.3657 56.126C74.3657 45.9668 66.1301 37.7312 55.971 37.7312C45.8118 37.7312 37.5762 45.9668 37.5762 56.126C37.5762 66.2851 45.8118 74.5207 55.971 74.5207Z" fill="#E94B35"/>
<path id="Vector_4" fill-rule="evenodd" clip-rule="evenodd" d="M74.3657 56.1263C74.3657 61.0049 72.4277 65.6837 68.978 69.1334C65.5283 72.5831 60.8495 74.5211 55.971 74.5211C51.0924 74.5211 46.4136 72.5831 42.9639 69.1334C39.5142 65.6837 37.5762 61.0049 37.5762 56.1263C37.5762 58.5656 38.5452 60.905 40.2701 62.6299C41.9949 64.3547 44.3343 65.3237 46.7736 65.3237C49.2129 65.3237 51.5523 64.3547 53.2771 62.6299C55.0019 60.905 55.971 58.5656 55.971 56.1263C55.971 53.687 56.94 51.3476 58.6648 49.6228C60.3896 47.898 62.729 46.929 65.1683 46.929C67.6076 46.929 69.947 47.898 71.6719 49.6228C73.3967 51.3476 74.3657 53.687 74.3657 56.1263Z" fill="#227FBB"/>
</g>
</g>
<defs>
<clipPath id="clip0_0_2756">
<rect width="110.369" height="110.369" fill="white" transform="translate(0.790283 0.94165)"/>
</clipPath>
</defs>
</svg>
