<svg width="103" height="104" viewBox="0 0 103 104" fill="none" xmlns="http://www.w3.org/2000/svg">
<g id="United kingdom" clip-path="url(#clip0_0_2765)">
<g id="Group">
<path id="Vector" d="M51.4503 103.369C23.1499 103.369 0.207825 80.4265 0.207825 52.1261C0.207825 23.8256 23.1499 0.883545 51.4503 0.883545C79.7508 0.883545 102.693 23.8256 102.693 52.1261C102.693 80.4265 79.7508 103.369 51.4503 103.369Z" fill="#227FBB"/>
<path id="Vector_2" fill-rule="evenodd" clip-rule="evenodd" d="M81.1408 10.3569L51.45 40.0477L21.7592 10.3569C17.0893 13.6831 13.0071 17.7653 9.68093 22.4352L39.3717 52.126L9.68093 81.8168C13.0071 86.4867 17.0893 90.5689 21.7592 93.8951L51.45 64.2043L81.1408 93.8951C85.8107 90.5689 89.8929 86.4867 93.2191 81.8168L63.5283 52.126L93.2191 22.4352C89.8929 17.7653 85.8107 13.6831 81.1408 10.3569Z" fill="white"/>
<path id="Vector_3" fill-rule="evenodd" clip-rule="evenodd" d="M20.0261 11.6445C18.3351 12.9598 16.7273 14.3775 15.2135 15.8934L48.4294 49.1049L52.9579 44.5743L20.0261 11.6445ZM87.6833 15.8934L54.4674 49.1071L58.9981 53.6356L91.93 20.7038C90.615 19.0136 89.196 17.407 87.6811 15.8934H87.6833ZM10.9689 83.5485C12.2825 85.2393 13.7001 86.8466 15.2135 88.361L48.4294 55.1452L43.8987 50.6166L10.9689 83.5485ZM82.8686 92.6077C84.5595 91.2928 86.1668 89.8738 87.6811 88.3589L54.4653 55.1452L49.9367 59.6759L82.8707 92.6077H82.8686Z" fill="#E94B35"/>
<path id="Vector_4" fill-rule="evenodd" clip-rule="evenodd" d="M38.6397 2.4977V39.3155H1.82195C0.769341 43.4106 0.207809 47.7021 0.207809 52.1261C0.207809 56.55 0.769341 60.8416 1.82195 64.9367H38.6397V101.754C42.825 102.83 47.1292 103.372 51.4503 103.369C55.8743 103.369 60.1658 102.807 64.261 101.754V64.9367H101.079C102.154 60.7515 102.696 56.4472 102.693 52.1261C102.693 47.7021 102.131 43.4106 101.079 39.3155H64.261V2.4977C60.0757 1.42262 55.7715 0.880287 51.4503 0.88356C47.0264 0.88356 42.7348 1.44509 38.6397 2.4977Z" fill="white"/>
<path id="Vector_5" fill-rule="evenodd" clip-rule="evenodd" d="M42.9099 1.59192V43.5852H0.916679C-0.031723 49.2393 -0.031723 55.0119 0.916679 60.666H42.9099V102.659C48.564 103.608 54.3366 103.608 59.9908 102.659V60.666H101.984C102.457 57.8438 102.694 54.9871 102.693 52.1256C102.693 49.2154 102.449 46.3608 101.984 43.5852H59.9908V1.59192C54.3366 0.643514 48.564 0.643514 42.9099 1.59192Z" fill="#E94B35"/>
</g>
</g>
<defs>
<clipPath id="clip0_0_2765">
<rect width="102.485" height="102.485" fill="white" transform="matrix(-1 0 0 1 102.696 0.883545)"/>
</clipPath>
</defs>
</svg>
