<svg width="101" height="102" viewBox="0 0 101 102" fill="none" xmlns="http://www.w3.org/2000/svg">
<g id="United states of america" clip-path="url(#clip0_0_2713)">
<g id="Group">
<path id="Vector" d="M50.5392 101.398C78.2954 101.398 100.796 78.8969 100.796 51.1406C100.796 23.3844 78.2954 0.883545 50.5392 0.883545C22.783 0.883545 0.282104 23.3844 0.282104 51.1406C0.282104 78.8969 22.783 101.398 50.5392 101.398Z" fill="white"/>
<path id="Vector_2" fill-rule="evenodd" clip-rule="evenodd" d="M77.0248 8.42217H50.5372V0.883607C59.8978 0.868902 69.0748 3.48073 77.0248 8.42217ZM86.8333 16.3795C89.0544 18.6973 91.0493 21.2215 92.7909 23.9181H50.5372V16.3795H86.8333ZM96.9685 31.8755C97.9846 34.3191 98.8039 36.84 99.4185 39.414H50.5372V31.8755H96.9685ZM100.654 47.3714C100.84 49.8808 100.84 52.4006 100.654 54.91H50.5372V47.3714H100.654ZM1.65804 62.8673H99.4206C98.8053 65.4412 97.986 67.9621 96.9706 70.4059H4.10598C3.09057 67.9621 2.2734 65.4412 1.65804 62.8673ZM8.2836 78.3633H92.7909C91.0493 81.0599 89.0544 83.5841 86.8333 85.9018H14.2412C12.0201 83.5841 10.0252 81.0599 8.2836 78.3633ZM24.0497 93.8592H77.0248C69.1173 98.7748 59.9947 101.386 50.6838 101.398H50.3949C41.0833 101.386 31.9599 98.7751 24.0518 93.8592H24.0497Z" fill="#E94B35"/>
<path id="Vector_3" fill-rule="evenodd" clip-rule="evenodd" d="M50.5392 0.883545V54.9099H0.420315C0.327757 53.6556 0.281656 52.3983 0.282108 51.1406C0.282108 23.3841 22.7826 0.883545 50.5392 0.883545Z" fill="#227FBB"/>
<g id="Group_2">
<path id="Vector_4" fill-rule="evenodd" clip-rule="evenodd" d="M40.0684 12.4007L38.8371 13.0478L39.0716 11.6783L38.0769 10.7067L39.4527 10.5056L40.0684 9.25968L40.684 10.5056L42.0598 10.7067L41.0651 11.6783L41.2997 13.0478L40.0684 12.4007ZM31.6922 12.4007L30.4609 13.0478L30.6954 11.6783L29.7007 10.7067L31.0765 10.5056L31.6922 9.25968L32.3078 10.5056L33.6836 10.7067L32.689 11.6783L32.9235 13.0478L31.6922 12.4007ZM44.2565 6.11861L43.0252 6.76567L43.2597 5.39616L42.2671 4.42243L43.6429 4.2214L44.2565 2.97754L44.8721 4.2235L46.2479 4.42452L45.2532 5.39616L45.4878 6.76567L44.2565 6.11861ZM19.1279 18.6829L17.8966 19.3299L18.1311 17.9604L17.1365 16.9888L18.5123 16.7878L19.1279 15.5418L19.7436 16.7878L21.1194 16.9888L20.1247 17.9604L20.3592 19.3299L19.1279 18.6829ZM27.5041 18.6829L26.2728 19.3299L26.5073 17.9604L25.5127 16.9888L26.8884 16.7878L27.5041 15.5418L28.1197 16.7878L29.4955 16.9888L28.5009 17.9604L28.7354 19.3299L27.5041 18.6829ZM35.8803 18.6829L34.649 19.3299L34.8835 17.9604L33.8888 16.9888L35.2646 16.7878L35.8803 15.5418L36.4959 16.7878L37.8717 16.9888L36.877 17.9604L37.1116 19.3299L35.8803 18.6829Z" fill="white"/>
<path id="Vector_5" fill-rule="evenodd" clip-rule="evenodd" d="M35.8801 18.6828L34.6488 19.3299L34.8833 17.9604L33.8886 16.9887L35.2644 16.7877L35.8801 15.5417L36.4957 16.7877L37.8715 16.9887L36.8768 17.9604L37.1114 19.3299L35.8801 18.6828ZM40.0681 24.965L38.8368 25.612L39.0714 24.2425L38.0767 23.2709L39.4525 23.0698L40.0681 21.8239L40.6838 23.0698L42.0596 23.2709L41.0649 24.2425L41.2994 25.612L40.0681 24.965ZM14.9396 24.965L13.7083 25.612L13.9428 24.2425L12.9482 23.2709L14.3239 23.0698L14.9396 21.8239L15.5552 23.0698L16.931 23.2709L15.9364 24.2425L16.1709 25.612L14.9396 24.965ZM23.3158 24.965L22.0845 25.612L22.319 24.2425L21.3243 23.2709L22.7001 23.0698L23.3158 21.8239L23.9314 23.0698L25.3072 23.2709L24.3125 24.2425L24.5471 25.612L23.3158 24.965ZM31.692 24.965L30.4607 25.612L30.6952 24.2425L29.7005 23.2709L31.0763 23.0698L31.692 21.8239L32.3076 23.0698L33.6834 23.2709L32.6887 24.2425L32.9233 25.612L31.692 24.965ZM44.2562 18.6828L43.0249 19.3299L43.2595 17.9604L42.2648 16.9887L43.6406 16.7877L44.2562 15.5417L44.8719 16.7877L46.2477 16.9887L45.253 17.9604L45.4875 19.3299L44.2562 18.6828ZM10.7515 31.2471L9.52021 31.8941L9.75474 30.5246L8.76007 29.553L10.1359 29.352L10.7515 28.106L11.3672 29.352L12.7429 29.553L11.7483 30.5246L11.9828 31.8941L10.7515 31.2471ZM19.1277 31.2471L17.8964 31.8941L18.1309 30.5246L17.1363 29.553L18.512 29.352L19.1277 28.106L19.7433 29.352L21.1191 29.553L20.1245 30.5246L20.359 31.8941L19.1277 31.2471ZM27.5039 31.2471L26.2726 31.8941L26.5071 30.5246L25.5124 29.553L26.8882 29.352L27.5039 28.106L28.1195 29.352L29.4953 29.553L28.5006 30.5246L28.7352 31.8941L27.5039 31.2471ZM35.8801 31.2471L34.6488 31.8941L34.8833 30.5246L33.8886 29.553L35.2644 29.352L35.8801 28.106L36.4957 29.352L37.8715 29.553L36.8768 30.5246L37.1114 31.8941L35.8801 31.2471Z" fill="white"/>
<path id="Vector_6" fill-rule="evenodd" clip-rule="evenodd" d="M35.88 31.247L34.6487 31.8941L34.8832 30.5246L33.8885 29.5529L35.2643 29.3519L35.88 28.106L36.4956 29.3519L37.8714 29.5529L36.8767 30.5246L37.1113 31.8941L35.88 31.247ZM40.0681 37.5292L38.8368 38.1762L39.0713 36.8067L38.0766 35.8351L39.4524 35.634L40.0681 34.3881L40.6837 35.634L42.0595 35.8351L41.0648 36.8067L41.2994 38.1762L40.0681 37.5292ZM6.56334 37.5292L5.33204 38.1762L5.56657 36.8067L4.5719 35.8351L5.94769 35.634L6.56334 34.3881L7.17899 35.634L8.55477 35.8351L7.5601 36.8067L7.79464 38.1762L6.56334 37.5292ZM14.9395 37.5292L13.7082 38.1762L13.9428 36.8067L12.9481 35.8351L14.3239 35.634L14.9395 34.3881L15.5552 35.634L16.931 35.8351L15.9363 36.8067L16.1708 38.1762L14.9395 37.5292ZM23.3157 37.5292L22.0844 38.1762L22.3189 36.8067L21.3243 35.8351L22.7001 35.634L23.3157 34.3881L23.9313 35.634L25.3071 35.8351L24.3125 36.8067L24.547 38.1762L23.3157 37.5292ZM31.6919 37.5292L30.4606 38.1762L30.6951 36.8067L29.7004 35.8351L31.0762 35.634L31.6919 34.3881L32.3075 35.634L33.6833 35.8351L32.6886 36.8067L32.9232 38.1762L31.6919 37.5292ZM44.2562 31.247L43.0249 31.8941L43.2594 30.5246L42.2647 29.5529L43.6405 29.3519L44.2562 28.106L44.8718 29.3519L46.2476 29.5529L45.2529 30.5246L45.4875 31.8941L44.2562 31.247ZM10.7514 43.8113L9.52013 44.4584L9.75466 43.0889L8.75999 42.1172L10.1358 41.9162L10.7514 40.6702L11.3671 41.9162L12.7429 42.1172L11.7482 43.0889L11.9827 44.4584L10.7514 43.8113ZM19.1276 43.8113L17.8963 44.4584L18.1308 43.0889L17.1362 42.1172L18.512 41.9162L19.1276 40.6702L19.7433 41.9162L21.119 42.1172L20.1244 43.0889L20.3589 44.4584L19.1276 43.8113ZM27.5038 43.8113L26.2725 44.4584L26.507 43.0889L25.5124 42.1172L26.8881 41.9162L27.5038 40.6702L28.1194 41.9162L29.4952 42.1172L28.5006 43.0889L28.7351 44.4584L27.5038 43.8113ZM35.88 43.8113L34.6487 44.4584L34.8832 43.0889L33.8885 42.1172L35.2643 41.9162L35.88 40.6702L36.4956 41.9162L37.8714 42.1172L36.8767 43.0889L37.1113 44.4584L35.88 43.8113Z" fill="white"/>
<path id="Vector_7" fill-rule="evenodd" clip-rule="evenodd" d="M35.88 43.8115L34.6487 44.4585L34.8832 43.089L33.8885 42.1174L35.2643 41.9164L35.88 40.6704L36.4956 41.9164L37.8714 42.1174L36.8767 43.089L37.1113 44.4585L35.88 43.8115ZM40.0681 50.0936L38.8368 50.7407L39.0713 49.3712L38.0766 48.3995L39.4524 48.1985L40.0681 46.9525L40.6837 48.1985L42.0595 48.3995L41.0648 49.3712L41.2994 50.7407L40.0681 50.0936ZM6.56334 50.0936L5.33204 50.7407L5.56657 49.3712L4.5719 48.3995L5.94769 48.1985L6.56334 46.9525L7.17899 48.1985L8.55477 48.3995L7.5601 49.3712L7.79464 50.7407L6.56334 50.0936ZM14.9395 50.0936L13.7082 50.7407L13.9428 49.3712L12.9481 48.3995L14.3239 48.1985L14.9395 46.9525L15.5552 48.1985L16.931 48.3995L15.9363 49.3712L16.1708 50.7407L14.9395 50.0936ZM23.3157 50.0936L22.0844 50.7407L22.3189 49.3712L21.3243 48.3995L22.7001 48.1985L23.3157 46.9525L23.9313 48.1985L25.3071 48.3995L24.3125 49.3712L24.547 50.7407L23.3157 50.0936ZM31.6919 50.0936L30.4606 50.7407L30.6951 49.3712L29.7004 48.3995L31.0762 48.1985L31.6919 46.9525L32.3075 48.1985L33.6833 48.3995L32.6886 49.3712L32.9232 50.7407L31.6919 50.0936ZM44.2562 43.8115L43.0249 44.4585L43.2594 43.089L42.2647 42.1174L43.6405 41.9164L44.2562 40.6704L44.8718 41.9164L46.2476 42.1174L45.2529 43.089L45.4875 44.4585L44.2562 43.8115Z" fill="white"/>
</g>
</g>
</g>
<defs>
<clipPath id="clip0_0_2713">
<rect width="100.514" height="100.514" fill="white" transform="translate(0.281921 0.883545)"/>
</clipPath>
</defs>
</svg>
