<svg width="28" height="28" viewBox="0 0 28 28" fill="none" xmlns="http://www.w3.org/2000/svg">
<g id="Calender">
<path id="Vector" d="M21.875 7H20.125V4.375C20.125 4.14294 20.0328 3.92038 19.8687 3.75628C19.7046 3.59219 19.4821 3.5 19.25 3.5C19.0179 3.5 18.7954 3.59219 18.6313 3.75628C18.4672 3.92038 18.375 4.14294 18.375 4.375V7H9.625V4.375C9.625 4.14294 9.53281 3.92038 9.36872 3.75628C9.20462 3.59219 8.98206 3.5 8.75 3.5C8.51794 3.5 8.29538 3.59219 8.13128 3.75628C7.96719 3.92038 7.875 4.14294 7.875 4.375V7H6.125C5.42881 7 4.76113 7.27656 4.26884 7.76884C3.77656 8.26113 3.5 8.92881 3.5 9.625V21.875C3.5 22.5712 3.77656 23.2389 4.26884 23.7312C4.76113 24.2234 5.42881 24.5 6.125 24.5H21.875C22.5712 24.5 23.2389 24.2234 23.7312 23.7312C24.2234 23.2389 24.5 22.5712 24.5 21.875V9.625C24.5 8.92881 24.2234 8.26113 23.7312 7.76884C23.2389 7.27656 22.5712 7 21.875 7ZM5.25 9.625C5.25 9.39294 5.34219 9.17038 5.50628 9.00628C5.67038 8.84219 5.89294 8.75 6.125 8.75H21.875C22.1071 8.75 22.3296 8.84219 22.4937 9.00628C22.6578 9.17038 22.75 9.39294 22.75 9.625V10.5H5.25V9.625ZM22.75 21.875C22.75 22.1071 22.6578 22.3296 22.4937 22.4937C22.3296 22.6578 22.1071 22.75 21.875 22.75H6.125C5.89294 22.75 5.67038 22.6578 5.50628 22.4937C5.34219 22.3296 5.25 22.1071 5.25 21.875V12.25H22.75V21.875Z" fill="black"/>
<path id="Vector_2" d="M7.875 15.75H9.625C9.85706 15.75 10.0796 15.6578 10.2437 15.4937C10.4078 15.3296 10.5 15.1071 10.5 14.875C10.5 14.6429 10.4078 14.4204 10.2437 14.2563C10.0796 14.0922 9.85706 14 9.625 14H7.875C7.64294 14 7.42038 14.0922 7.25628 14.2563C7.09219 14.4204 7 14.6429 7 14.875C7 15.1071 7.09219 15.3296 7.25628 15.4937C7.42038 15.6578 7.64294 15.75 7.875 15.75ZM7.875 21H9.625C9.85706 21 10.0796 20.9078 10.2437 20.7437C10.4078 20.5796 10.5 20.3571 10.5 20.125C10.5 19.8929 10.4078 19.6704 10.2437 19.5063C10.0796 19.3422 9.85706 19.25 9.625 19.25H7.875C7.64294 19.25 7.42038 19.3422 7.25628 19.5063C7.09219 19.6704 7 19.8929 7 20.125C7 20.3571 7.09219 20.5796 7.25628 20.7437C7.42038 20.9078 7.64294 21 7.875 21ZM13.125 15.75H14.875C15.1071 15.75 15.3296 15.6578 15.4937 15.4937C15.6578 15.3296 15.75 15.1071 15.75 14.875C15.75 14.6429 15.6578 14.4204 15.4937 14.2563C15.3296 14.0922 15.1071 14 14.875 14H13.125C12.8929 14 12.6704 14.0922 12.5063 14.2563C12.3422 14.4204 12.25 14.6429 12.25 14.875C12.25 15.1071 12.3422 15.3296 12.5063 15.4937C12.6704 15.6578 12.8929 15.75 13.125 15.75ZM13.125 21H14.875C15.1071 21 15.3296 20.9078 15.4937 20.7437C15.6578 20.5796 15.75 20.3571 15.75 20.125C15.75 19.8929 15.6578 19.6704 15.4937 19.5063C15.3296 19.3422 15.1071 19.25 14.875 19.25H13.125C12.8929 19.25 12.6704 19.3422 12.5063 19.5063C12.3422 19.6704 12.25 19.8929 12.25 20.125C12.25 20.3571 12.3422 20.5796 12.5063 20.7437C12.6704 20.9078 12.8929 21 13.125 21ZM18.375 21H20.125C20.3571 21 20.5796 20.9078 20.7437 20.7437C20.9078 20.5796 21 20.3571 21 20.125C21 19.8929 20.9078 19.6704 20.7437 19.5063C20.5796 19.3422 20.3571 19.25 20.125 19.25H18.375C18.1429 19.25 17.9204 19.3422 17.7563 19.5063C17.5922 19.6704 17.5 19.8929 17.5 20.125C17.5 20.3571 17.5922 20.5796 17.7563 20.7437C17.9204 20.9078 18.1429 21 18.375 21ZM18.375 15.75H20.125C20.3571 15.75 20.5796 15.6578 20.7437 15.4937C20.9078 15.3296 21 15.1071 21 14.875C21 14.6429 20.9078 14.4204 20.7437 14.2563C20.5796 14.0922 20.3571 14 20.125 14H18.375C18.1429 14 17.9204 14.0922 17.7563 14.2563C17.5922 14.4204 17.5 14.6429 17.5 14.875C17.5 15.1071 17.5922 15.3296 17.7563 15.4937C17.9204 15.6578 18.1429 15.75 18.375 15.75Z" fill="black"/>
</g>
</svg>
