<svg width="35" height="35" viewBox="0 0 35 35" fill="none" xmlns="http://www.w3.org/2000/svg">
<g id="left arrow">
<path id="Vector" d="M24.1129 16.1414H13.3604L18.0354 11.4805C18.3022 11.2138 18.452 10.852 18.452 10.4747C18.452 10.0974 18.3022 9.73564 18.0354 9.46888C17.7686 9.20211 17.4068 9.05225 17.0296 9.05225C16.6523 9.05225 16.2905 9.20211 16.0237 9.46888L8.94039 16.5522C8.81142 16.6869 8.71032 16.8458 8.64289 17.0197C8.5012 17.3646 8.5012 17.7515 8.64289 18.0964C8.71032 18.2703 8.81142 18.4291 8.94039 18.5639L16.0237 25.6472C16.1554 25.78 16.3121 25.8854 16.4847 25.9573C16.6574 26.0292 16.8425 26.0663 17.0296 26.0663C17.2166 26.0663 17.4017 26.0292 17.5744 25.9573C17.747 25.8854 17.9037 25.78 18.0354 25.6472C18.1682 25.5155 18.2736 25.3588 18.3455 25.1862C18.4174 25.0136 18.4544 24.8284 18.4544 24.6414C18.4544 24.4544 18.4174 24.2692 18.3455 24.0966C18.2736 23.9239 18.1682 23.7672 18.0354 23.6355L13.3604 18.9747H24.1129C24.4886 18.9747 24.8489 18.8255 25.1146 18.5598C25.3803 18.2941 25.5296 17.9338 25.5296 17.558C25.5296 17.1823 25.3803 16.822 25.1146 16.5563C24.8489 16.2906 24.4886 16.1414 24.1129 16.1414Z" fill="black"/>
</g>
</svg>
