<svg width="39" height="39" viewBox="0 0 39 39" fill="none" xmlns="http://www.w3.org/2000/svg">
<g id="About">
<path id="Vector" fill-rule="evenodd" clip-rule="evenodd" d="M17.9836 13.8205C18.043 13.9393 18.1024 14.058 18.1617 14.1471C18.2211 14.2361 18.3102 14.3252 18.3695 14.4143C18.4586 14.5033 18.5477 14.5924 18.6664 14.6814C18.7555 14.7408 18.8742 14.8299 19.0227 14.8596C19.1414 14.9189 19.2602 14.9486 19.4086 14.9783C19.557 15.008 19.6758 15.008 19.7945 15.008C19.9133 15.008 20.0617 15.008 20.1805 14.9783C20.2992 14.9486 20.418 14.9189 20.507 14.8596H20.5367C20.6555 14.8002 20.7742 14.7408 20.893 14.6518C20.982 14.5924 21.0711 14.5033 21.1602 14.4143L21.1899 14.3846C21.2789 14.2955 21.3383 14.2064 21.3977 14.1174C21.457 14.0283 21.5164 13.9393 21.5461 13.8205C21.5461 13.7908 21.5461 13.7908 21.5758 13.7611C21.6352 13.6424 21.6649 13.4939 21.6945 13.3752C21.7242 13.2564 21.7242 13.108 21.7242 12.9893C21.7242 12.8705 21.7242 12.7221 21.6945 12.6033C21.6649 12.4846 21.6352 12.3658 21.5758 12.2174C21.4867 12.0096 21.368 11.8314 21.2195 11.683C21.1899 11.6533 21.1899 11.6533 21.1602 11.6236C21.0711 11.5346 20.982 11.4752 20.8633 11.3861C20.7445 11.3268 20.6555 11.2674 20.5367 11.208C20.418 11.1486 20.2992 11.1189 20.1805 11.0893C20.032 11.0596 19.9133 11.0596 19.7945 11.0596C19.6758 11.0596 19.5274 11.0596 19.4086 11.0893C19.2899 11.1189 19.1711 11.1486 19.0524 11.208H19.0227C18.9039 11.2674 18.7852 11.3268 18.6961 11.3861C18.5774 11.4752 18.4883 11.5346 18.3992 11.6236C18.3102 11.7127 18.2211 11.8018 18.1617 11.8908C18.1024 11.9799 18.043 12.0986 17.9836 12.2174C17.9242 12.3361 17.8945 12.4549 17.8649 12.5736C17.8352 12.7221 17.8352 12.8408 17.8352 12.9596C17.8352 13.0783 17.8352 13.2268 17.8649 13.3455C17.8945 13.583 17.9539 13.7018 17.9836 13.8205ZM22.1102 24.6861H21.4274V17.4127C21.4274 16.9971 21.1008 16.6408 20.6555 16.6408H17.5383C17.1227 16.6408 16.7664 16.9674 16.7664 17.4127V19.0158C16.7664 19.4314 17.093 19.7877 17.5383 19.7877H18.1617V24.7158H17.5383C17.1227 24.7158 16.7664 25.0424 16.7664 25.4877V27.0908C16.7664 27.5064 17.093 27.8627 17.5383 27.8627H22.1102C22.5258 27.8627 22.882 27.5361 22.882 27.0908V25.4877C22.882 25.0424 22.5258 24.6861 22.1102 24.6861Z" fill="#FFA0A0"/>
<path id="Vector_2" fill-rule="evenodd" clip-rule="evenodd" d="M19.8242 3.22168C10.8586 3.22168 3.58514 10.4951 3.58514 19.4607C3.58514 28.4264 10.8586 35.6998 19.8242 35.6998C28.7898 35.6998 36.0633 28.4264 36.0633 19.4607C36.0633 10.4951 28.7898 3.22168 19.8242 3.22168ZM19.8242 33.5623C12.0461 33.5623 5.72264 27.2389 5.72264 19.4607C5.72264 11.6826 12.0461 5.35918 19.8242 5.35918C27.6023 5.35918 33.9258 11.6826 33.9258 19.4607C33.9258 27.2389 27.6023 33.5623 19.8242 33.5623Z" fill="#FFA0A0"/>
</g>
</svg>
