<svg width="31" height="31" viewBox="0 0 31 31" fill="none" xmlns="http://www.w3.org/2000/svg">
<g id="data storage">
<path id="Vector" d="M11.8848 14.0815H6.88477C6.53961 14.0815 6.25977 14.3614 6.25977 14.7065C6.25977 15.0517 6.53961 15.3315 6.88477 15.3315H11.8848C12.2299 15.3315 12.5098 15.0517 12.5098 14.7065C12.5098 14.3614 12.2299 14.0815 11.8848 14.0815ZM23.1348 21.4253C22.7033 21.4253 22.3535 21.7751 22.3535 22.2065C22.3535 22.638 22.7033 22.9878 23.1348 22.9878C23.5662 22.9878 23.916 22.638 23.916 22.2065C23.916 21.7751 23.5662 21.4253 23.1348 21.4253ZM23.1348 6.42529C22.7033 6.42529 22.3535 6.7751 22.3535 7.20654C22.3535 7.63799 22.7033 7.98779 23.1348 7.98779C23.5662 7.98779 23.916 7.63799 23.916 7.20654C23.916 6.7751 23.5662 6.42529 23.1348 6.42529ZM19.3848 21.4253C18.9533 21.4253 18.6035 21.7751 18.6035 22.2065C18.6035 22.638 18.9533 22.9878 19.3848 22.9878C19.8162 22.9878 20.166 22.638 20.166 22.2065C20.166 21.7751 19.8162 21.4253 19.3848 21.4253ZM11.8848 21.5815H6.88477C6.53961 21.5815 6.25977 21.8614 6.25977 22.2065C6.25977 22.5517 6.53961 22.8315 6.88477 22.8315H11.8848C12.2299 22.8315 12.5098 22.5517 12.5098 22.2065C12.5098 21.8614 12.2299 21.5815 11.8848 21.5815ZM19.3848 13.9253C18.9533 13.9253 18.6035 14.2751 18.6035 14.7065C18.6035 15.138 18.9533 15.4878 19.3848 15.4878C19.8162 15.4878 20.166 15.138 20.166 14.7065C20.166 14.2751 19.8162 13.9253 19.3848 13.9253ZM19.3848 6.42529C18.9533 6.42529 18.6035 6.7751 18.6035 7.20654C18.6035 7.63799 18.9533 7.98779 19.3848 7.98779C19.8162 7.98779 20.166 7.63799 20.166 7.20654C20.166 6.7751 19.8162 6.42529 19.3848 6.42529ZM11.8848 6.58154H6.88477C6.53961 6.58154 6.25977 6.86139 6.25977 7.20654C6.25977 7.5517 6.53961 7.83154 6.88477 7.83154H11.8848C12.2299 7.83154 12.5098 7.5517 12.5098 7.20654C12.5098 6.86139 12.2299 6.58154 11.8848 6.58154ZM23.1348 13.9253C22.7033 13.9253 22.3535 14.2751 22.3535 14.7065C22.3535 15.138 22.7033 15.4878 23.1348 15.4878C23.5662 15.4878 23.916 15.138 23.916 14.7065C23.916 14.2751 23.5662 13.9253 23.1348 13.9253ZM27.5098 8.45654V5.95654C27.5082 4.23131 26.11 2.83315 24.3848 2.83154H5.63477C3.90953 2.83315 2.51137 4.23131 2.50977 5.95654V8.45654C2.51076 9.48369 3.01338 10.387 3.77869 10.9565C3.01338 11.5261 2.51076 12.4294 2.50977 13.4565V15.9565C2.51076 16.9837 3.01338 17.887 3.77869 18.4565C3.01338 19.0261 2.51076 19.9294 2.50977 20.9565V23.4565C2.51137 25.1818 3.90953 26.5799 5.63477 26.5815H24.3848C26.11 26.5799 27.5082 25.1818 27.5098 23.4565V20.9565C27.5088 19.9294 27.0061 19.0261 26.2408 18.4565C27.0061 17.887 27.5088 16.9837 27.5098 15.9565V13.4565C27.5088 12.4294 27.0061 11.5261 26.2408 10.9565C27.0061 10.387 27.5088 9.48369 27.5098 8.45654ZM26.2598 20.9565V23.4565C26.2586 24.4916 25.4198 25.3304 24.3848 25.3315H5.63477C4.59969 25.3304 3.76091 24.4916 3.75977 23.4565V20.9565C3.76091 19.9215 4.59969 19.0827 5.63477 19.0815H24.3848C25.4198 19.0827 26.2586 19.9215 26.2598 20.9565ZM26.2598 13.4565V15.9565C26.2586 16.9916 25.4198 17.8304 24.3848 17.8315H5.63477C4.59969 17.8304 3.76091 16.9916 3.75977 15.9565V13.4565C3.76091 12.4215 4.59969 11.5827 5.63477 11.5815H24.3848C25.4198 11.5827 26.2586 12.4215 26.2598 13.4565ZM26.2598 8.45654C26.2586 9.49162 25.4198 10.3304 24.3848 10.3315H5.63477C4.59969 10.3304 3.76091 9.49162 3.75977 8.45654V5.95654C3.76091 4.92146 4.59969 4.08269 5.63477 4.08154H24.3848C25.4198 4.08269 26.2586 4.92146 26.2598 5.95654V8.45654Z" fill="#FFA0A0"/>
</g>
</svg>
