<svg width="37" height="37" viewBox="0 0 37 37" fill="none" xmlns="http://www.w3.org/2000/svg">
<g id="Privacy" clip-path="url(#clip0_14_575)">
<path id="Vector" d="M18.7615 25.8874C13.8837 25.8874 9.91534 21.9039 9.91534 17.0074C9.91534 12.111 13.8837 8.12744 18.7615 8.12744C23.6393 8.12744 27.6077 12.111 27.6077 17.0074C27.6077 21.9039 23.6393 25.8874 18.7615 25.8874ZM18.7615 10.589C15.241 10.589 12.3769 13.4683 12.3769 17.0074C12.3769 20.5466 15.241 23.4259 18.7615 23.4259C22.282 23.4259 25.1461 20.5466 25.1461 17.0074C25.1461 13.4683 22.282 10.589 18.7615 10.589Z" fill="#FFA0A0"/>
<path id="Vector_2" d="M16.5803 20.0491L14.3604 17.4585L16.2295 15.8568L17.5747 17.4265L21.4009 13.5127L23.161 15.2335L18.395 20.1086C18.163 20.3458 17.2744 20.6818 16.5803 20.0491Z" fill="#FFA0A0"/>
<path id="Vector_3" d="M17.5694 35.7997C7.13314 30.9188 2.98237 19.341 3.23368 8.47518C3.2466 7.91364 3.63929 7.43241 4.18745 7.30611C7.13083 6.62734 9.43683 4.51057 9.41422 1.32587C9.41137 0.654028 9.97214 0.0917969 10.6451 0.0917969H26.8826C27.5554 0.0917969 28.1161 0.653797 28.1134 1.32557C28.0483 4.32172 30.3514 6.81441 33.2626 7.29087C33.8494 7.38687 34.2834 7.88795 34.2941 8.48141C34.4878 19.2073 29.7657 30.3727 20.0167 35.6979C19.6063 35.922 18.8571 36.4019 17.5694 35.7997ZM18.5699 33.554C18.655 33.5916 18.7517 33.5873 18.8353 33.5416C21.8981 31.8686 31.7331 25.255 31.8384 9.48541C28.656 8.56864 26.1691 5.8561 25.7234 2.54964H11.8043C11.3583 5.85857 8.86822 8.57234 5.68283 9.48734C5.6656 18.9169 9.33245 29.4519 18.5699 33.554C18.655 33.5917 17.2698 32.9766 18.5699 33.554Z" fill="#FFA0A0"/>
</g>
<defs>
<clipPath id="clip0_14_575">
<rect width="36" height="36" fill="white" transform="translate(0.761475 0.0917969)"/>
</clipPath>
</defs>
</svg>
