<svg width="41" height="42" viewBox="0 0 41 42" fill="none" xmlns="http://www.w3.org/2000/svg">
<g id="Terms And Conditions">
<path id="Vector" d="M32.2571 3.9541H8.67644C8.30137 3.9541 7.99786 4.25761 7.99786 4.63268V37.2046C7.99786 37.5796 8.30137 37.8831 8.67644 37.8831H32.2571C32.6322 37.8831 32.9357 37.5796 32.9357 37.2046V4.63268C32.9357 4.25761 32.6322 3.9541 32.2571 3.9541ZM31.5785 36.526H9.35503V5.31126H31.5785V36.526Z" fill="#FFA0A0"/>
<path id="Vector_2" d="M11.7327 9.19163H13.3675V14.6203C13.3675 14.9954 13.671 15.2989 14.0461 15.2989C14.4212 15.2989 14.7247 14.9954 14.7247 14.6203V9.19163H16.3595C16.7346 9.19163 17.0381 8.88813 17.0381 8.51305C17.0381 8.13798 16.7346 7.83447 16.3595 7.83447H11.7327C11.3576 7.83447 11.0541 8.13798 11.0541 8.51305C11.0541 8.88813 11.3576 9.19163 11.7327 9.19163ZM19.7498 15.2989C20.315 15.2989 20.8472 15.0789 21.2468 14.6786L21.5792 14.3461L22.2163 15.0689C22.3501 15.2213 22.5377 15.2989 22.7252 15.2989C22.8849 15.2989 23.0446 15.2432 23.1738 15.1292C23.4548 14.8814 23.482 14.4526 23.2341 14.1716L22.5406 13.3847L23.0665 12.8589C23.3315 12.5938 23.3315 12.1644 23.0665 11.8993C22.8014 11.6343 22.372 11.6343 22.1069 11.8993L21.6416 12.3646L19.3137 9.7231C19.1991 9.58593 19.2176 9.38116 19.3548 9.26718C19.4927 9.1532 19.6981 9.17043 19.8121 9.30827L19.9207 9.43881C20.1606 9.72575 20.5881 9.76617 20.8763 9.52629C21.1646 9.2864 21.2037 8.85831 20.9638 8.57071L20.8551 8.4395C20.2614 7.72712 19.1991 7.63103 18.4861 8.22413C17.7743 8.81788 17.6776 9.88016 18.2833 10.6064L18.6173 10.9855C18.1141 11.3686 17.7788 11.8722 17.6564 12.4619C17.4655 13.3844 17.832 14.2578 18.2528 14.6786C18.653 15.0782 19.1845 15.2989 19.7498 15.2989ZM20.6802 13.3261L20.2872 13.719C19.9996 14.0066 19.5006 14.0073 19.213 13.7184C19.0632 13.5693 18.9009 13.1452 18.9851 12.7376C19.0461 12.4437 19.2287 12.2011 19.518 12.0073L20.6802 13.3261ZM27.5415 15.2989C28.2035 15.2989 28.8417 15.0729 29.3877 14.6448C29.6833 14.4135 29.735 13.9874 29.5037 13.6925C29.2724 13.3976 28.8463 13.3453 28.5514 13.5766C28.246 13.8151 27.8967 13.9417 27.5415 13.9417C26.4892 13.9417 25.633 12.8761 25.633 11.5667C25.633 10.2572 26.4892 9.19163 27.5415 9.19163C27.8967 9.19163 28.246 9.31821 28.5514 9.55677C28.8463 9.78804 29.2724 9.73635 29.5037 9.4408C29.735 9.14591 29.6833 8.71981 29.3877 8.48853C28.8417 8.06045 28.2035 7.83447 27.5415 7.83447C25.741 7.83447 24.2759 9.50906 24.2759 11.5667C24.2759 13.6243 25.741 15.2989 27.5415 15.2989ZM12.4961 19.697C12.4623 19.6699 12.4219 19.6493 12.3808 19.6354C12.3404 19.6155 12.2993 19.6016 12.2523 19.595C12.1707 19.5744 12.0753 19.5744 11.9872 19.595C11.9468 19.6016 11.9057 19.6155 11.8653 19.6354C11.8242 19.6493 11.7837 19.6699 11.7433 19.697C11.7089 19.7242 11.6751 19.7514 11.6413 19.7779C11.5193 19.9071 11.4445 20.0834 11.4445 20.2603C11.4445 20.4432 11.512 20.6129 11.6413 20.7421C11.7089 20.8031 11.7837 20.8574 11.8653 20.8912C11.9468 20.925 12.0349 20.9389 12.123 20.9389C12.2112 20.9389 12.2993 20.925 12.3808 20.8912C12.4623 20.8574 12.5372 20.8031 12.5982 20.7421C12.7267 20.6129 12.8016 20.4432 12.8016 20.2603C12.8016 20.0834 12.7267 19.9071 12.5982 19.7779C12.571 19.7514 12.5372 19.7242 12.4961 19.697ZM15.8552 19.5824C15.4802 19.5824 15.1766 19.8859 15.1766 20.261C15.1766 20.6361 15.4802 20.9396 15.8552 20.9396H29.2009C29.5759 20.9396 29.8795 20.6361 29.8795 20.261C29.8795 19.8859 29.5759 19.5824 29.2009 19.5824H15.8552ZM12.6048 24.135C12.4418 23.9786 12.2112 23.9037 11.9872 23.9514C11.9468 23.9581 11.9057 23.972 11.8653 23.9852C11.8242 24.0058 11.7837 24.0263 11.7433 24.0535C11.7089 24.0734 11.6751 24.1005 11.6413 24.135C11.5803 24.196 11.5326 24.2702 11.4988 24.3517C11.465 24.4398 11.4445 24.528 11.4445 24.6168C11.4445 24.7049 11.465 24.793 11.4988 24.8745C11.5326 24.956 11.5803 25.0303 11.6413 25.0912C11.7089 25.1595 11.7837 25.2065 11.8653 25.241C11.9468 25.2748 12.0349 25.2953 12.123 25.2953C12.3066 25.2953 12.4762 25.2205 12.6048 25.0912C12.6658 25.0303 12.7135 24.956 12.7473 24.8745C12.7811 24.793 12.8016 24.7049 12.8016 24.6168C12.8016 24.528 12.7811 24.4398 12.7473 24.3517C12.7135 24.2702 12.6658 24.196 12.6048 24.135ZM29.2009 23.9368H15.8552C15.4802 23.9368 15.1766 24.2404 15.1766 24.6154C15.1766 24.9905 15.4802 25.294 15.8552 25.294H29.2009C29.5759 25.294 29.8795 24.9905 29.8795 24.6154C29.8795 24.2404 29.5759 23.9368 29.2009 23.9368ZM12.6048 28.4914C12.571 28.457 12.5372 28.4298 12.4961 28.4033C12.4623 28.3827 12.4219 28.3622 12.3808 28.3417C12.3404 28.3218 12.2993 28.3145 12.2523 28.3012C12.123 28.2741 11.9872 28.2873 11.8653 28.3417C11.7771 28.3761 11.7089 28.4232 11.6413 28.4914C11.5803 28.5524 11.5326 28.6266 11.4988 28.7081C11.465 28.7896 11.4445 28.8778 11.4445 28.9659C11.4445 29.1495 11.512 29.3191 11.6413 29.4477C11.7089 29.5093 11.7837 29.5636 11.8653 29.5974C11.9468 29.6312 12.0349 29.6445 12.123 29.6445C12.2112 29.6445 12.2993 29.6312 12.3808 29.5974C12.4623 29.5636 12.5372 29.5093 12.6048 29.4477C12.7267 29.3191 12.8016 29.1495 12.8016 28.9659C12.8016 28.8778 12.7811 28.7896 12.7473 28.7081C12.7135 28.6266 12.6658 28.5524 12.6048 28.4914ZM29.2009 28.2906H15.8552C15.4802 28.2906 15.1766 28.5941 15.1766 28.9692C15.1766 29.3443 15.4802 29.6478 15.8552 29.6478H29.2009C29.5759 29.6478 29.8795 29.3443 29.8795 28.9692C29.8795 28.5941 29.5759 28.2906 29.2009 28.2906ZM12.6048 32.8406C12.571 32.8141 12.5372 32.7869 12.4961 32.7597C12.4623 32.7326 12.4219 32.712 12.3808 32.6981C12.3404 32.6782 12.2993 32.6643 12.2589 32.6577C12.1707 32.6371 12.0753 32.6371 11.9872 32.6577C11.9468 32.6643 11.9057 32.6782 11.8653 32.6981C11.8242 32.712 11.7837 32.7326 11.7433 32.7597C11.7089 32.7869 11.6751 32.8141 11.6413 32.8406C11.5803 32.9088 11.5326 32.9837 11.4988 33.0646C11.4584 33.1461 11.4445 33.2342 11.4445 33.323C11.4445 33.5059 11.512 33.6755 11.6413 33.8048C11.7089 33.8657 11.7837 33.9128 11.8653 33.9472C11.9468 33.981 12.0349 34.0016 12.123 34.0016C12.3066 34.0016 12.4762 33.9333 12.6048 33.8048C12.7267 33.6755 12.8016 33.5059 12.8016 33.323C12.8016 33.2342 12.7811 33.1461 12.7473 33.0646C12.7135 32.9837 12.6658 32.9088 12.6048 32.8406ZM29.2009 32.6451H15.8552C15.4802 32.6451 15.1766 32.9486 15.1766 33.3237C15.1766 33.6987 15.4802 34.0022 15.8552 34.0022H29.2009C29.5759 34.0022 29.8795 33.6987 29.8795 33.3237C29.8795 32.9486 29.5759 32.6451 29.2009 32.6451Z" fill="#FFA0A0"/>
</g>
</svg>
