<svg width="92" height="92" viewBox="0 0 92 92" fill="none" xmlns="http://www.w3.org/2000/svg">
<path d="M36.8 78.2C41.0342 78.2 44.4667 74.7675 44.4667 70.5334C44.4667 66.2992 41.0342 62.8667 36.8 62.8667C32.5658 62.8667 29.1333 66.2992 29.1333 70.5334C29.1333 74.7675 32.5658 78.2 36.8 78.2Z" stroke="black" style="stroke:black;stroke:black;stroke-opacity:1;" stroke-width="5" stroke-linecap="round" stroke-linejoin="round"/>
<path d="M67.4667 78.2C71.7009 78.2 75.1333 74.7675 75.1333 70.5334C75.1333 66.2992 71.7009 62.8667 67.4667 62.8667C63.2325 62.8667 59.8 66.2992 59.8 70.5334C59.8 74.7675 63.2325 78.2 67.4667 78.2Z" stroke="black" style="stroke:black;stroke:black;stroke-opacity:1;" stroke-width="5" stroke-linecap="round" stroke-linejoin="round"/>
<path d="M12.2667 15.3333H18.5533C20.2615 15.3256 21.9226 15.8932 23.2689 16.9446C24.6152 17.9961 25.5683 19.4701 25.9747 21.1293L32.292 46.3373C32.7042 48.0225 33.6801 49.516 35.0579 50.5703C36.4356 51.6245 38.1324 52.176 39.8667 52.1333H68.08C69.6884 52.1321 71.2557 51.6251 72.5601 50.684C73.8644 49.7428 74.8397 48.4153 75.348 46.8893L80.776 30.6667C81.0293 29.9715 81.11 29.2251 81.0112 28.4919C80.9124 27.7586 80.6369 27.0603 80.2086 26.457C79.7802 25.8536 79.2118 25.3634 78.5521 25.0283C77.8924 24.6932 77.1612 24.5234 76.4213 24.5333H27.6" stroke="black" style="stroke:black;stroke:black;stroke-opacity:1;" stroke-width="5" stroke-linecap="round" stroke-linejoin="round"/>
</svg>
