<svg width="80" height="80" viewBox="0 0 80 80" fill="none" xmlns="http://www.w3.org/2000/svg">
<g id="Home">
<path id="Vector" d="M66.6667 26.6667L46.6667 9.13335C44.8333 7.4935 42.4598 6.58691 40 6.58691C37.5402 6.58691 35.1668 7.4935 33.3333 9.13335L13.3333 26.6667C12.2746 27.6136 11.4297 28.7752 10.8549 30.0742C10.2802 31.3731 9.98872 32.7796 10 34.2V63.3334C10 65.9855 11.0536 68.5291 12.9289 70.4044C14.8043 72.2798 17.3478 73.3334 20 73.3334H60C62.6522 73.3334 65.1957 72.2798 67.0711 70.4044C68.9464 68.5291 70 65.9855 70 63.3334V34.1667C70.0066 32.7519 69.7128 31.3518 69.1382 30.059C68.5636 28.7661 67.7212 27.6099 66.6667 26.6667ZM46.6667 66.6667H33.3333V50C33.3333 49.116 33.6845 48.2681 34.3097 47.643C34.9348 47.0179 35.7826 46.6667 36.6667 46.6667H43.3333C44.2174 46.6667 45.0652 47.0179 45.6904 47.643C46.3155 48.2681 46.6667 49.116 46.6667 50V66.6667ZM63.3333 63.3334C63.3333 64.2174 62.9822 65.0653 62.357 65.6904C61.7319 66.3155 60.8841 66.6667 60 66.6667H53.3333V50C53.3333 47.3479 52.2798 44.8043 50.4044 42.9289C48.529 41.0536 45.9855 40 43.3333 40H36.6667C34.0145 40 31.471 41.0536 29.5956 42.9289C27.7202 44.8043 26.6667 47.3479 26.6667 50V66.6667H20C19.116 66.6667 18.2681 66.3155 17.643 65.6904C17.0179 65.0653 16.6667 64.2174 16.6667 63.3334V34.1667C16.6673 33.6934 16.7687 33.2257 16.9641 32.7946C17.1595 32.3636 17.4444 31.9791 17.8 31.6667L37.8 14.1667C38.4083 13.6323 39.1903 13.3376 40 13.3376C40.8097 13.3376 41.5917 13.6323 42.2 14.1667L62.2 31.6667C62.5556 31.9791 62.8405 32.3636 63.0359 32.7946C63.2314 33.2257 63.3327 33.6934 63.3333 34.1667V63.3334Z" fill="#FE0000"/>
</g>
</svg>
