<svg width="86" height="86" viewBox="0 0 86 86" fill="none" xmlns="http://www.w3.org/2000/svg">
<g id="Menu">
<g id="Layer 5">
<path id="Vector" d="M21.5 40.3125H32.25C34.3883 40.3125 36.439 39.4631 37.951 37.951C39.4631 36.439 40.3125 34.3883 40.3125 32.25V21.5C40.3125 19.3617 39.4631 17.311 37.951 15.799C36.439 14.2869 34.3883 13.4375 32.25 13.4375H21.5C19.3617 13.4375 17.311 14.2869 15.799 15.799C14.2869 17.311 13.4375 19.3617 13.4375 21.5V32.25C13.4375 34.3883 14.2869 36.439 15.799 37.951C17.311 39.4631 19.3617 40.3125 21.5 40.3125ZM18.8125 21.5C18.8125 20.7872 19.0956 20.1037 19.5997 19.5997C20.1037 19.0956 20.7872 18.8125 21.5 18.8125H32.25C32.9628 18.8125 33.6463 19.0956 34.1503 19.5997C34.6544 20.1037 34.9375 20.7872 34.9375 21.5V32.25C34.9375 32.9628 34.6544 33.6463 34.1503 34.1503C33.6463 34.6544 32.9628 34.9375 32.25 34.9375H21.5C20.7872 34.9375 20.1037 34.6544 19.5997 34.1503C19.0956 33.6463 18.8125 32.9628 18.8125 32.25V21.5ZM53.75 40.3125H64.5C66.6383 40.3125 68.689 39.4631 70.201 37.951C71.7131 36.439 72.5625 34.3883 72.5625 32.25V21.5C72.5625 19.3617 71.7131 17.311 70.201 15.799C68.689 14.2869 66.6383 13.4375 64.5 13.4375H53.75C51.6117 13.4375 49.561 14.2869 48.049 15.799C46.5369 17.311 45.6875 19.3617 45.6875 21.5V32.25C45.6875 34.3883 46.5369 36.439 48.049 37.951C49.561 39.4631 51.6117 40.3125 53.75 40.3125ZM51.0625 21.5C51.0625 20.7872 51.3456 20.1037 51.8496 19.5997C52.3537 19.0956 53.0372 18.8125 53.75 18.8125H64.5C65.2128 18.8125 65.8963 19.0956 66.4004 19.5997C66.9044 20.1037 67.1875 20.7872 67.1875 21.5V32.25C67.1875 32.9628 66.9044 33.6463 66.4004 34.1503C65.8963 34.6544 65.2128 34.9375 64.5 34.9375H53.75C53.0372 34.9375 52.3537 34.6544 51.8496 34.1503C51.3456 33.6463 51.0625 32.9628 51.0625 32.25V21.5ZM21.5 72.5625H32.25C34.3883 72.5625 36.439 71.7131 37.951 70.201C39.4631 68.689 40.3125 66.6383 40.3125 64.5V53.75C40.3125 51.6117 39.4631 49.561 37.951 48.049C36.439 46.5369 34.3883 45.6875 32.25 45.6875H21.5C19.3617 45.6875 17.311 46.5369 15.799 48.049C14.2869 49.561 13.4375 51.6117 13.4375 53.75V64.5C13.4375 66.6383 14.2869 68.689 15.799 70.201C17.311 71.7131 19.3617 72.5625 21.5 72.5625ZM18.8125 53.75C18.8125 53.0372 19.0956 52.3537 19.5997 51.8496C20.1037 51.3456 20.7872 51.0625 21.5 51.0625H32.25C32.9628 51.0625 33.6463 51.3456 34.1503 51.8496C34.6544 52.3537 34.9375 53.0372 34.9375 53.75V64.5C34.9375 65.2128 34.6544 65.8963 34.1503 66.4004C33.6463 66.9044 32.9628 67.1875 32.25 67.1875H21.5C20.7872 67.1875 20.1037 66.9044 19.5997 66.4004C19.0956 65.8963 18.8125 65.2128 18.8125 64.5V53.75ZM53.75 72.5625H64.5C66.6383 72.5625 68.689 71.7131 70.201 70.201C71.7131 68.689 72.5625 66.6383 72.5625 64.5V53.75C72.5625 51.6117 71.7131 49.561 70.201 48.049C68.689 46.5369 66.6383 45.6875 64.5 45.6875H53.75C51.6117 45.6875 49.561 46.5369 48.049 48.049C46.5369 49.561 45.6875 51.6117 45.6875 53.75V64.5C45.6875 66.6383 46.5369 68.689 48.049 70.201C49.561 71.7131 51.6117 72.5625 53.75 72.5625ZM51.0625 53.75C51.0625 53.0372 51.3456 52.3537 51.8496 51.8496C52.3537 51.3456 53.0372 51.0625 53.75 51.0625H64.5C65.2128 51.0625 65.8963 51.3456 66.4004 51.8496C66.9044 52.3537 67.1875 53.0372 67.1875 53.75V64.5C67.1875 65.2128 66.9044 65.8963 66.4004 66.4004C65.8963 66.9044 65.2128 67.1875 64.5 67.1875H53.75C53.0372 67.1875 52.3537 66.9044 51.8496 66.4004C51.3456 65.8963 51.0625 65.2128 51.0625 64.5V53.75Z" fill="black"/>
</g>
</g>
</svg>
