<svg width="64" height="64" viewBox="0 0 64 64" fill="none" xmlns="http://www.w3.org/2000/svg">
<g id="News Paper">
<path id="Vector" d="M52 10H46V8C46 6.4087 45.3679 4.88258 44.2426 3.75736C43.1174 2.63214 41.5913 2 40 2H8C6.4087 2 4.88258 2.63214 3.75736 3.75736C2.63214 4.88258 2 6.4087 2 8V54C2 56.1217 2.84285 58.1566 4.34315 59.6569C5.84344 61.1571 7.87827 62 10 62H50C52.1217 62 54.1566 61.1571 55.6569 59.6569C57.1571 58.1566 58 56.1217 58 54V16C58 14.4087 57.3679 12.8826 56.2426 11.7574C55.1174 10.6321 53.5913 10 52 10ZM6 54V8C6 7.46957 6.21071 6.96086 6.58579 6.58579C6.96086 6.21071 7.46957 6 8 6H40C40.5304 6 41.0391 6.21071 41.4142 6.58579C41.7893 6.96086 42 7.46957 42 8V54C42.0083 55.4085 42.3922 56.7893 43.112 58H10C8.93913 58 7.92172 57.5786 7.17157 56.8284C6.42143 56.0783 6 55.0609 6 54ZM54 54C54 55.0609 53.5786 56.0783 52.8284 56.8284C52.0783 57.5786 51.0609 58 50 58C48.9391 58 47.9217 57.5786 47.1716 56.8284C46.4214 56.0783 46 55.0609 46 54V14H52C52.5304 14 53.0391 14.2107 53.4142 14.5858C53.7893 14.9609 54 15.4696 54 16V54Z" fill="black"/>
<path id="Vector_2" d="M32 12H16C14.9391 12 13.9217 12.4214 13.1716 13.1716C12.4214 13.9217 12 14.9391 12 16V20C12 21.0609 12.4214 22.0783 13.1716 22.8284C13.9217 23.5786 14.9391 24 16 24H32C33.0609 24 34.0783 23.5786 34.8284 22.8284C35.5786 22.0783 36 21.0609 36 20V16C36 14.9391 35.5786 13.9217 34.8284 13.1716C34.0783 12.4214 33.0609 12 32 12ZM16 20V16H32V20H16ZM34 28H14C13.4696 28 12.9609 28.2107 12.5858 28.5858C12.2107 28.9609 12 29.4696 12 30C12 30.5304 12.2107 31.0391 12.5858 31.4142C12.9609 31.7893 13.4696 32 14 32H34C34.5304 32 35.0391 31.7893 35.4142 31.4142C35.7893 31.0391 36 30.5304 36 30C36 29.4696 35.7893 28.9609 35.4142 28.5858C35.0391 28.2107 34.5304 28 34 28ZM34 38H14C13.4696 38 12.9609 38.2107 12.5858 38.5858C12.2107 38.9609 12 39.4696 12 40C12 40.5304 12.2107 41.0391 12.5858 41.4142C12.9609 41.7893 13.4696 42 14 42H34C34.5304 42 35.0391 41.7893 35.4142 41.4142C35.7893 41.0391 36 40.5304 36 40C36 39.4696 35.7893 38.9609 35.4142 38.5858C35.0391 38.2107 34.5304 38 34 38ZM26 48H14C13.4696 48 12.9609 48.2107 12.5858 48.5858C12.2107 48.9609 12 49.4696 12 50C12 50.5304 12.2107 51.0391 12.5858 51.4142C12.9609 51.7893 13.4696 52 14 52H26C26.5304 52 27.0391 51.7893 27.4142 51.4142C27.7893 51.0391 28 50.5304 28 50C28 49.4696 27.7893 48.9609 27.4142 48.5858C27.0391 48.2107 26.5304 48 26 48Z" fill="black"/>
<path id="Vector_3" d="M34 52C35.1046 52 36 51.1046 36 50C36 48.8954 35.1046 48 34 48C32.8954 48 32 48.8954 32 50C32 51.1046 32.8954 52 34 52Z" fill="black"/>
</g>
</svg>
