<svg width="27" height="27" viewBox="0 0 27 27" fill="none" xmlns="http://www.w3.org/2000/svg">
<g id="Information Sign">
<path id="Vector" d="M13.3763 2.6665C11.2337 2.6665 9.13916 3.30187 7.35763 4.49225C5.5761 5.68263 4.18756 7.37457 3.36761 9.3541C2.54766 11.3336 2.33313 13.5119 2.75113 15.6133C3.16914 17.7148 4.20091 19.6451 5.71598 21.1602C7.23105 22.6752 9.16137 23.707 11.2628 24.125C13.3643 24.543 15.5425 24.3285 17.522 23.5085C19.5016 22.6886 21.1935 21.3 22.3839 19.5185C23.5743 17.737 24.2096 15.6425 24.2096 13.4998C24.2064 10.6276 23.0641 7.87399 21.0331 5.84304C19.0021 3.81209 16.2485 2.6697 13.3763 2.6665ZM13.3763 22.1665C11.6622 22.1665 9.98659 21.6582 8.56136 20.7059C7.13614 19.7536 6.02531 18.4001 5.36935 16.8164C4.71339 15.2328 4.54176 13.4902 4.87617 11.8091C5.21057 10.1279 6.03599 8.58363 7.24805 7.37158C8.4601 6.15952 10.0044 5.3341 11.6855 4.9997C13.3667 4.66529 15.1093 4.83692 16.6929 5.49288C18.2765 6.14884 19.6301 7.25967 20.5824 8.6849C21.5347 10.1101 22.043 11.7857 22.043 13.4998C22.0403 15.7976 21.1264 18.0004 19.5017 19.6252C17.8769 21.2499 15.674 22.1639 13.3763 22.1665ZM13.3763 12.9582C13.089 12.9582 12.8134 13.0723 12.6103 13.2755C12.4071 13.4786 12.293 13.7542 12.293 14.0415V17.2915C12.293 17.5788 12.4071 17.8544 12.6103 18.0575C12.8134 18.2607 13.089 18.3748 13.3763 18.3748C13.6636 18.3748 13.9392 18.2607 14.1423 18.0575C14.3455 17.8544 14.4596 17.5788 14.4596 17.2915V14.0415C14.4596 13.7542 14.3455 13.4786 14.1423 13.2755C13.9392 13.0723 13.6636 12.9582 13.3763 12.9582ZM13.3763 8.62484C13.1085 8.62484 12.8467 8.70426 12.624 8.85306C12.4013 9.00185 12.2277 9.21335 12.1252 9.46079C12.0227 9.70823 11.9959 9.98051 12.0482 10.2432C12.1004 10.5059 12.2294 10.7472 12.4188 10.9365C12.6081 11.1259 12.8494 11.2549 13.1121 11.3072C13.3748 11.3594 13.6471 11.3326 13.8945 11.2301C14.142 11.1276 14.3535 10.954 14.5023 10.7313C14.6511 10.5086 14.7305 10.2468 14.7305 9.979C14.7305 9.61986 14.5878 9.27542 14.3338 9.02146C14.0799 8.76751 13.7355 8.62484 13.3763 8.62484Z" fill="#BABABA"/>
</g>
</svg>
